<svg width="24" height="24" viewBox="0 0 24 24" fill="none" xmlns="http://www.w3.org/2000/svg">
<rect x="4.5" y="4.5" width="15" height="15" rx="1.5" stroke="#DBE2EF"/>
<path d="M4.5 6C4.5 5.17157 5.17157 4.5 6 4.5H18C18.8284 4.5 19.5 5.17157 19.5 6V8.5H4.5V6Z" stroke="#DBE2EF"/>
<path d="M15.9516 14.81L16.2253 15.0011L16.5067 14.8215L19.5 12.912V18C19.5 18.8284 18.8284 19.5 18 19.5H6C5.17157 19.5 4.5 18.8284 4.5 18V16.2412L7.2387 14.0627L9.34085 15.3367L9.66011 15.5302L9.93634 15.2791L12.841 12.6384L15.9516 14.81Z" stroke="#DBE2EF"/>
</svg>
