<svg width="24" height="24" viewBox="0 0 24 24" fill="none" xmlns="http://www.w3.org/2000/svg">
<path d="M6.20711 7.5L9.5 4.20711V7.5H6.20711Z" stroke="#DFE2E6"/>
<path fill-rule="evenodd" clip-rule="evenodd" d="M10 4H17C17.5523 4 18 4.44772 18 5V19C18 19.5523 17.5523 20 17 20H7C6.44772 20 6 19.5523 6 19V8H5V19C5 20.1046 5.89543 21 7 21H17C18.1046 21 19 20.1046 19 19V5C19 3.89543 18.1046 3 17 3H10V4Z" fill="#DFE2E6"/>
<path d="M11 11L8 14L11 17" stroke="#DFE2E6"/>
<path d="M13 11L16 14L13 17" stroke="#DFE2E6"/>
</svg>
