<svg width="24" height="24" viewBox="0 0 24 24" fill="none" xmlns="http://www.w3.org/2000/svg">
<path fill-rule="evenodd" clip-rule="evenodd" d="M4 5C4 4.44772 4.44772 4 5 4C5.55228 4 6 4.44772 6 5H4ZM3 5C3 4.63571 3.09739 4.29417 3.26756 4C3.61337 3.4022 4.25972 3 5 3H16C17.1046 3 18 3.89543 18 5V18H21V19C21 20.1046 20.1046 21 19 21H16H8C6.89543 21 6 20.1046 6 19V18V6H3V5ZM17 5V18H9V19C9 19.5523 8.55228 20 8 20C7.44772 20 7 19.5523 7 19V18V5C7 4.63571 6.90261 4.29417 6.73244 4H16C16.5523 4 17 4.44772 17 5ZM16 20H9.73244C9.90261 19.7058 10 19.3643 10 19H16H17H18H20C20 19.5523 19.5523 20 19 20H18H17.7324H16Z" fill="#DFE2E6"/>
<rect x="9" y="8" width="6" height="1" fill="#DFE2E6"/>
<rect x="9" y="11" width="6" height="1" fill="#DFE2E6"/>
<rect x="9" y="14" width="6" height="1" fill="#DFE2E6"/>
</svg>
