<svg width="24" height="24" viewBox="0 0 24 24" fill="none" xmlns="http://www.w3.org/2000/svg">
<rect x="8.5" y="3.5" width="7" height="2" rx="1" stroke="#DFE2E6"/>
<path d="M9.5 11.446V5.5H14.5V11.446C14.5 11.8991 14.6231 12.3437 14.8563 12.7323L17.1437 16.5447C17.3769 16.9333 17.5 17.3778 17.5 17.831V18C17.5 19.3807 16.3807 20.5 15 20.5H9C7.61929 20.5 6.5 19.3807 6.5 18V17.831C6.5 17.3778 6.62314 16.9333 6.85627 16.5447L9.14373 12.7323C9.37686 12.3437 9.5 11.8991 9.5 11.446Z" stroke="#DFE2E6"/>
<path d="M7.5 15.5C9 15.5 9.5 16.5 11 16.5C12.5 16.5 13 14 15.5 14" stroke="#DFE2E6"/>
</svg>
