<svg width="24" height="24" viewBox="0 0 24 24" fill="none" xmlns="http://www.w3.org/2000/svg">
<path d="M10.5216 11.1078L11.0118 11.0097V11.0097L10.5216 11.1078ZM8.60559 13.9082L8.4438 13.4351L8.60559 13.9082ZM15.3944 13.9082L15.2326 14.3813L15.3944 13.9082ZM13.4784 11.1078L13.9687 11.2058V11.2058L13.4784 11.1078ZM11.0118 11.0097L10.9903 10.9019L10.0097 11.0981L10.0313 11.2058L11.0118 11.0097ZM5.5 18C5.5 16.3426 6.90048 15.0197 8.76739 14.3813L8.4438 13.4351C6.40726 14.1315 4.5 15.7107 4.5 18H5.5ZM5.5 19V18H4.5V19H5.5ZM18 19.5H6V20.5H18V19.5ZM18.5 18V19H19.5V18H18.5ZM15.2326 14.3813C17.0995 15.0197 18.5 16.3426 18.5 18H19.5C19.5 15.7107 17.5927 14.1315 15.5562 13.4351L15.2326 14.3813ZM13.0097 10.902L12.9882 11.0097L13.9687 11.2058L13.9903 11.0981L13.0097 10.902ZM18 20.5C18.8284 20.5 19.5 19.8284 19.5 19H18.5C18.5 19.2761 18.2761 19.5 18 19.5V20.5ZM4.5 19C4.5 19.8284 5.17157 20.5 6 20.5V19.5C5.72386 19.5 5.5 19.2761 5.5 19H4.5ZM15.5562 13.4351C14.5029 13.0748 13.788 12.1094 13.9687 11.2058L12.9882 11.0097C12.6738 12.5813 13.8975 13.9247 15.2326 14.3813L15.5562 13.4351ZM10.0313 11.2058C10.212 12.1094 9.49709 13.0748 8.4438 13.4351L8.76739 14.3813C10.1025 13.9247 11.3262 12.5813 11.0118 11.0097L10.0313 11.2058Z" fill="#DFE2E6"/>
<path fill-rule="evenodd" clip-rule="evenodd" d="M8.62036 14.3254L9.37962 13.6746L12 16.7317L14.6204 13.6746L15.3796 14.3254L12 18.2683L8.62036 14.3254Z" fill="#DFE2E6"/>
<path d="M9.50006 3.50001L9.65818 3.97435L9.7511 3.94338L9.82546 3.87964L9.50006 3.50001ZM8.50007 8.50001L8.10007 8.80001L8.67264 9.56344L8.97441 8.65813L8.50007 8.50001ZM10.5001 6.00001L10.7237 5.5528C10.4767 5.4293 10.1763 5.52942 10.0529 5.77641L10.5001 6.00001ZM13.0001 6.50001L13.0001 6.00001L13.0001 6.50001ZM15.5001 8.50001L15.0529 8.72362L15.4768 9.57148L15.9371 8.74283L15.5001 8.50001ZM9.34195 3.02567C8.39313 3.34194 7.6734 4.25321 7.39195 5.30868C7.1052 6.38397 7.25185 7.66906 8.10007 8.80001L8.90007 8.20001C8.24828 7.33096 8.14493 6.36605 8.35818 5.56634C8.57673 4.7468 9.107 4.15807 9.65818 3.97435L9.34195 3.02567ZM8.97441 8.65813C9.185 8.02636 9.48758 7.72377 9.82016 7.44662C10.1517 7.17033 10.6383 6.84159 10.9473 6.22362L10.0529 5.77641C9.86184 6.15843 9.59843 6.32969 9.17998 6.6784C8.76255 7.02625 8.31514 7.47366 8.02573 8.3419L8.97441 8.65813ZM10.2765 6.44723C10.7591 6.68854 11.073 6.84951 11.4645 6.9278C11.8378 7.00246 12.2741 7.00001 13.0001 7.00001L13.0001 6.00001C12.226 6.00001 11.9124 5.99757 11.6606 5.94722C11.4271 5.90052 11.241 5.81148 10.7237 5.5528L10.2765 6.44723ZM13.0001 7.00001C13.6144 7.00001 13.9872 7.198 14.269 7.47903C14.5773 7.7865 14.7956 8.20919 15.0529 8.72362L15.9473 8.2764C15.7045 7.79083 15.4189 7.21353 14.9752 6.77099C14.505 6.30203 13.8778 6.00001 13.0001 6.00001L13.0001 7.00001ZM15.9371 8.74283C17.2998 6.29002 16.6381 4.01455 15.0558 2.79187C13.4932 1.5844 11.1046 1.46614 9.17467 3.12038L9.82546 3.87964C11.3955 2.53388 13.2569 2.66562 14.4443 3.58315C15.6121 4.48547 16.2003 6.21 15.063 8.25719L15.9371 8.74283Z" fill="#DFE2E6"/>
<mask id="path-4-inside-1" fill="white">
<path fill-rule="evenodd" clip-rule="evenodd" d="M8.08301 8.41624C8.45918 10.4622 10.07 12 12 12C13.949 12 15.5724 10.4319 15.9278 8.35592C15.6842 7.87329 15.4238 7.4019 14.9767 7.05496C14.9921 7.19981 15 7.34828 15 7.50001C15 9.54699 13.5494 11 12 11C10.4507 11 9.00004 9.54699 9.00004 7.50001C9.00004 7.47595 9.00024 7.45197 9.00064 7.42808C8.65999 7.81537 8.30859 8.18664 8.08301 8.41624Z"/>
</mask>
<path fill-rule="evenodd" clip-rule="evenodd" d="M8.08301 8.41624C8.45918 10.4622 10.07 12 12 12C13.949 12 15.5724 10.4319 15.9278 8.35592C15.6842 7.87329 15.4238 7.4019 14.9767 7.05496C14.9921 7.19981 15 7.34828 15 7.50001C15 9.54699 13.5494 11 12 11C10.4507 11 9.00004 9.54699 9.00004 7.50001C9.00004 7.47595 9.00024 7.45197 9.00064 7.42808C8.65999 7.81537 8.30859 8.18664 8.08301 8.41624Z" fill="#DFE2E6"/>
<path d="M8.08301 8.41624L7.36968 7.71541L7.00553 8.08605L7.09949 8.59708L8.08301 8.41624ZM15.9278 8.35592L16.9134 8.52464L16.9691 8.19971L16.8205 7.90541L15.9278 8.35592ZM14.9767 7.05496L15.5897 6.26491L13.7341 4.82509L13.9823 7.16061L14.9767 7.05496ZM9.00064 7.42808L10.0005 7.44476L10.0459 4.72559L8.24976 6.76764L9.00064 7.42808ZM7.09949 8.59708C7.54584 11.0247 9.49877 13 12 13V11C10.6412 11 9.37252 9.89966 9.06652 8.23541L7.09949 8.59708ZM12 13C14.5262 13 16.4921 10.9863 16.9134 8.52464L14.9421 8.18721C14.6528 9.8774 13.3719 11 12 11V13ZM16.8205 7.90541C16.5761 7.42097 16.2315 6.76288 15.5897 6.26491L14.3636 7.84502C14.6161 8.04092 14.7924 8.3256 15.035 8.80644L16.8205 7.90541ZM16 7.50001C16 7.31324 15.9902 7.1295 15.9711 6.94931L13.9823 7.16061C13.9939 7.27013 14 7.38333 14 7.50001H16ZM12 12C14.1996 12 16 9.99599 16 7.50001H14C14 9.09799 12.8992 10 12 10V12ZM8.00004 7.50001C8.00004 9.99599 9.80046 12 12 12V10C11.1009 10 10 9.09799 10 7.50001H8.00004ZM8.00077 7.4114C8.00028 7.44085 8.00004 7.47039 8.00004 7.50001H10C10 7.48151 10.0002 7.46309 10.0005 7.44476L8.00077 7.4114ZM8.24976 6.76764C7.92298 7.13916 7.58435 7.49692 7.36968 7.71541L8.79633 9.11708C9.03283 8.87636 9.397 8.49158 9.75151 8.08852L8.24976 6.76764Z" fill="#DFE2E6" mask="url(#path-4-inside-1)"/>
</svg>
