<svg width="24" height="24" viewBox="0 0 24 24" fill="none" xmlns="http://www.w3.org/2000/svg">
<rect x="6" y="7" width="13" height="9" fill="#EDF6FC"/>
<path d="M22.6856 16.4802L15.5294 11.115L15.531 20.059L18.1065 18.0551L19.4665 20.7739L20.8974 20.0581L19.5374 17.3393L22.6856 16.4802Z" fill="#3380DE"/>
<path d="M6 8C6 7.44772 6.44772 7 7 7H18C18.5523 7 19 7.44772 19 8V12H21V7C21 5.89543 20.1046 5 19 5H6C4.89543 5 4 5.89543 4 7V16C4 17.1046 4.89543 18 6 18H13V16H7C6.44772 16 6 15.5523 6 15V8Z" fill="#3380DE"/>
</svg>
