<svg width="24" height="24" viewBox="0 0 24 24" fill="none" xmlns="http://www.w3.org/2000/svg">
<rect x="3" y="3" width="18" height="18" rx="2" fill="#DFE2E6"/>
<path d="M3 5C3 3.89543 3.80589 3 4.8 3H19.2C20.1941 3 21 3.89543 21 5V8H3V5Z" fill="#3380DE"/>
<path d="M8 5.5C8 6.32843 7.32843 7 6.5 7C5.67157 7 5 6.32843 5 5.5C5 4.67157 5.67157 4 6.5 4C7.32843 4 8 4.67157 8 5.5Z" fill="#E8F4FC"/>
<path d="M12 5.5C12 6.32843 11.3284 7 10.5 7C9.67157 7 9 6.32843 9 5.5C9 4.67157 9.67157 4 10.5 4C11.3284 4 12 4.67157 12 5.5Z" fill="#E8F4FC"/>
<path d="M16 5.5C16 6.32843 15.3284 7 14.5 7C13.6716 7 13 6.32843 13 5.5C13 4.67157 13.6716 4 14.5 4C15.3284 4 16 4.67157 16 5.5Z" fill="#E8F4FC"/>
<path d="M8.38828 16H7.51434V14.2736H5.87677V16H5V12H5.87677V13.5677H7.51434V12H8.38828V16Z" fill="#3380DE"/>
<path d="M11.0299 16H10.1531V12.7059H9.0303V12H12.1527V12.7059H11.0299V16Z" fill="#3380DE"/>
<path d="M14.3842 16H13.5075V12.7059H12.3846V12H15.5071V12.7059H14.3842V16Z" fill="#3380DE"/>
<path d="M17.0202 13.8824H17.3087C17.5783 13.8824 17.7801 13.8313 17.9139 13.7291C18.0478 13.6252 18.1147 13.4747 18.1147 13.2777C18.1147 13.0789 18.0582 12.9321 17.9451 12.8372C17.8338 12.7424 17.6585 12.6949 17.419 12.6949H17.0202V13.8824ZM19 13.2476C19 13.6781 18.8605 14.0073 18.5814 14.2353C18.3042 14.4633 17.9092 14.5773 17.3964 14.5773H17.0202V16H16.1434V12H17.4642C17.9658 12 18.3467 12.1049 18.6069 12.3146C18.869 12.5226 19 12.8336 19 13.2476Z" fill="#3380DE"/>
</svg>
