<svg width="40" height="40" viewBox="0 0 40 40" fill="none" xmlns="http://www.w3.org/2000/svg">
<mask id="mask0" mask-type="alpha" maskUnits="userSpaceOnUse" x="0" y="0" width="40" height="40">
<rect x="0.5" y="0.5" width="39" height="39" fill="white" stroke="white"/>
</mask>
<g mask="url(#mask0)">
<mask id="path-2-inside-1" fill="white">
<path fill-rule="evenodd" clip-rule="evenodd" d="M10.5408 37H27.25V23H19.7765C18.8875 28.9098 15.4126 33.9728 10.5408 37ZM20 20V0H0V20V40H30.25V20H20ZM17 20V3H3V20H17ZM3 23H16.7361C15.4926 29.9842 9.9842 35.4926 3 36.7361V23Z"/>
</mask>
<path d="M10.5408 37L4.20751 26.8074L-31.5083 49H10.5408V37ZM27.25 37V49H39.25V37H27.25ZM27.25 23H39.25V11H27.25V23ZM19.7765 23V11H9.44657L7.91 21.215L19.7765 23ZM20 0H32V-12H20V0ZM20 20H8V32H20V20ZM0 0V-12H-12V0H0ZM0 40H-12V52H0V40ZM30.25 40V52H42.25V40H30.25ZM30.25 20H42.25V8H30.25V20ZM17 20V32H29V20H17ZM17 3H29V-9H17V3ZM3 3V-9H-9V3H3ZM3 20H-9V32H3V20ZM16.7361 23L28.5503 25.1035L31.0615 11H16.7361V23ZM3 23V11H-9V23H3ZM3 36.7361H-9V51.0615L5.10353 48.5503L3 36.7361ZM10.5408 49H27.25V25H10.5408V49ZM39.25 37V23H15.25V37H39.25ZM27.25 11H19.7765V35H27.25V11ZM7.91 21.215C7.55985 23.5428 6.18252 25.5802 4.20751 26.8074L16.8742 47.1926C24.6428 42.3655 30.2152 34.2769 31.643 24.785L7.91 21.215ZM8 0V20H32V0H8ZM0 12H20V-12H0V12ZM12 20V0H-12V20H12ZM-12 20V40H12V20H-12ZM0 52H30.25V28H0V52ZM42.25 40V20H18.25V40H42.25ZM30.25 8H20V32H30.25V8ZM29 20V3H5V20H29ZM17 -9H3V15H17V-9ZM-9 3V20H15V3H-9ZM17 8H3V32H17V8ZM16.7361 11H3V35H16.7361V11ZM5.10353 48.5503C17.0399 46.425 26.425 37.0399 28.5503 25.1035L4.92194 20.8965C4.56014 22.9285 2.92848 24.5601 0.896469 24.9219L5.10353 48.5503ZM-9 23V36.7361H15V23H-9Z" fill="white" mask="url(#path-2-inside-1)"/>
</g>
</svg>
