<svg width="16" height="10" viewBox="0 0 16 10" fill="none" xmlns="http://www.w3.org/2000/svg">
<path fill-rule="evenodd" clip-rule="evenodd" d="M8 10C3 10 0 5 0 5C0 5 3 0 8 0C13 0 16 5 16 5C16 5 13 10 8 10ZM1.71117 6.03532C1.71059 6.03627 1.7107 6.03608 1.71151 6.03477L1.71117 6.03532ZM3.47035 3.97988C3.08348 4.33158 2.75347 4.68525 2.486 5C2.75347 5.31475 3.08348 5.66842 3.47035 6.02012C4.65239 7.0947 6.19214 8 8 8C9.80786 8 11.3476 7.0947 12.5297 6.02012C12.9165 5.66842 13.2465 5.31475 13.514 5C13.2465 4.68525 12.9165 4.33158 12.5297 3.97988C11.3476 2.9053 9.80786 2 8 2C6.19214 2 4.65239 2.9053 3.47035 3.97988ZM8 6.75C8.9665 6.75 9.75 5.9665 9.75 5C9.75 4.0335 8.9665 3.25 8 3.25C7.0335 3.25 6.25 4.0335 6.25 5C6.25 5.9665 7.0335 6.75 8 6.75ZM14.2885 6.03477C14.2893 6.03608 14.2894 6.03627 14.2888 6.03532L14.2885 6.03477Z" fill="#1E2631"/>
</svg>
