<svg width="16" height="16" viewBox="0 0 16 16" fill="none" xmlns="http://www.w3.org/2000/svg">
<path fill-rule="evenodd" clip-rule="evenodd" d="M9.4024 0.734694C9.10916 0.710161 8.82 0.81603 8.61193 1.02411L1.02409 8.61194C0.63357 9.00246 0.63357 9.63563 1.02409 10.0262L5.97384 14.9759C6.36437 15.3664 6.99753 15.3664 7.38805 14.9759L14.9759 7.38807C15.184 7.17999 15.2898 6.89083 15.2653 6.59759L14.8832 2.02997C14.8425 1.5435 14.4565 1.15752 13.97 1.11682L9.4024 0.734694ZM10.8143 5.18569C11.3078 5.67919 12.108 5.67919 12.6015 5.18569C13.095 4.69219 13.095 3.89206 12.6015 3.39856C12.108 2.90506 11.3078 2.90506 10.8143 3.39856C10.3208 3.89206 10.3208 4.69219 10.8143 5.18569Z" fill="#1E2631"/>
</svg>
