<svg width="24" height="24" viewBox="0 0 24 24" fill="none" xmlns="http://www.w3.org/2000/svg">
<rect x="6" y="3" width="12" height="7" rx="1" fill="#636C77"/>
<path fill-rule="evenodd" clip-rule="evenodd" d="M13 10H11V12H8H6V14V15H4C3.44772 15 3 15.4477 3 16V19C3 19.5523 3.44772 20 4 20H10C10.5523 20 11 19.5523 11 19V16C11 15.4477 10.5523 15 10 15H8V14H16V15H14C13.4477 15 13 15.4477 13 16V19C13 19.5523 13.4477 20 14 20H20C20.5523 20 21 19.5523 21 19V16C21 15.4477 20.5523 15 20 15H18V14V12H16H13V10Z" fill="#D8DDE3"/>
</svg>
