<svg width="24" height="24" viewBox="0 0 24 24" fill="none" xmlns="http://www.w3.org/2000/svg">
<ellipse cx="12" cy="7.5" rx="4" ry="4.5" fill="#DFE2E6"/>
<path fill-rule="evenodd" clip-rule="evenodd" d="M8.02783 6.96632C9.79968 6.83893 10.6498 6.35016 11.5 5.5C12.0844 6.08441 13.719 7.18111 15.9997 7.44286C15.9725 4.98391 14.1922 3 12 3C9.95137 3 8.26244 4.73258 8.02783 6.96632Z" fill="#636C77"/>
<mask id="mask0" mask-type="alpha" maskUnits="userSpaceOnUse" x="5" y="13" width="15" height="8">
<path d="M5 19.1677C5.27217 15.7189 8.34315 13 12.0915 13C15.8398 13 18.9108 15.7189 19.183 19.1678C17.0955 20.3332 14.6739 21 12.0915 21C9.5091 21 7.08746 20.3332 5 19.1677Z" fill="#CAE5F7"/>
</mask>
<g mask="url(#mask0)">
<path d="M5 19.1677C5.27217 15.7189 8.34315 13 12.0915 13C15.8398 13 18.9108 15.7189 19.183 19.1678C17.0955 20.3332 14.6739 21 12.0915 21C9.5091 21 7.08746 20.3332 5 19.1677Z" fill="#636C77"/>
<path d="M10.5 18.5L11.5 13H12.5L13.5 18.5L12 20L10.5 18.5Z" fill="#DFE2E6"/>
</g>
</svg>
