<svg width="863" height="782" viewBox="0 0 863 782" fill="none" xmlns="http://www.w3.org/2000/svg">
<path d="M217.5 625C217.5 708.2 134 761 0.5 782L863 782.5V169C856 140 843.504 14.124 683 1.50001C505 -12.5 523.5 186.5 340 169C195.559 155.225 44 211 44 352.5C44 508.5 217.5 521 217.5 625Z" fill="#E7EDF3"/>
<g clip-path="url(#clip0)">
<g opacity="0.5">
<path d="M465.803 483.672C450.749 483.687 435.701 483.808 420.672 484.365C415.009 484.576 409.463 485.037 403.785 485.223C392.443 485.606 381.305 486.289 369.923 486.611C360.756 486.868 351.553 487.021 342.411 487.348C333.554 487.662 324.629 487.568 315.833 487.067C309.54 486.684 303.217 486.481 297.041 485.878C290.118 485.204 282.596 484.729 275.384 484.739C265.099 484.763 255.069 484.767 245.236 485.956C241.782 486.376 237.551 487.061 234.926 487.94C228.927 489.947 228.115 494.957 234.113 497.039C244.22 500.545 265.775 501.919 279.935 501.984C295.451 502.055 310.525 501.67 326.062 501.446C340.501 501.236 354.905 500.937 369.37 500.949C398.909 500.97 428.453 500.949 457.941 500.29C485.642 499.671 513.418 499.884 541.18 499.884C569.652 499.884 597.932 499.959 626.196 501.224C638.512 501.774 651.057 501.965 663.435 502.35C674.522 502.695 685.172 502.35 696.214 502.025C705.471 501.775 714.561 500.963 723.132 499.622C729.801 498.561 741.686 495.26 743.727 492.729C749.462 485.623 662.972 485.794 649.666 485.809C634.81 485.828 619.832 486 604.971 485.809C598.729 485.728 592.573 485.323 586.479 484.876C580.384 484.43 574.289 484.545 568.134 484.359C542.45 483.565 516.715 483.672 490.959 483.672C482.579 483.672 474.189 483.655 465.803 483.672Z" fill="#B9C5D3"/>
</g>
<path d="M603.107 234.896C603.226 233.488 603.263 232.074 603.219 230.662C603.174 229.302 603.051 227.946 602.848 226.6L595.741 225.417L593.31 218.655L598.056 213.212C596.626 210.823 594.922 208.608 592.98 206.612L586.507 209.871L580.583 205.84L581.223 198.636C578.736 197.584 576.137 196.819 573.476 196.356L570.121 202.769L562.958 202.956L559.283 196.702C556.566 197.319 553.93 198.251 551.429 199.479L552.495 206.632L546.805 210.983L540.16 208.12C538.326 210.215 536.743 212.517 535.444 214.979L540.52 220.142L538.49 227.001L531.439 228.59C531.31 230.035 531.266 231.486 531.307 232.936C531.356 234.265 531.473 235.59 531.657 236.906L538.764 238.105L541.16 244.857L536.378 250.284C537.814 252.67 539.517 254.884 541.454 256.884L547.927 253.676L553.836 257.737L553.166 264.941C555.729 266.033 558.41 266.823 561.156 267.297L564.491 260.834L571.649 260.636L575.339 266.881C578.054 266.252 580.688 265.311 583.187 264.078L582.111 256.925L587.782 252.549L594.421 255.392C596.252 253.292 597.829 250.985 599.122 248.517L594.046 243.38L596.051 236.495L603.107 234.896ZM567.247 249.589C563.733 249.589 560.298 248.547 557.376 246.594C554.455 244.641 552.177 241.866 550.833 238.619C549.488 235.372 549.136 231.799 549.821 228.353C550.507 224.906 552.199 221.739 554.684 219.254C557.169 216.769 560.335 215.077 563.781 214.391C567.228 213.705 570.8 214.057 574.047 215.402C577.293 216.747 580.068 219.025 582.021 221.947C583.973 224.869 585.015 228.305 585.015 231.819C585.015 236.532 583.143 241.052 579.811 244.384C576.479 247.717 571.96 249.589 567.247 249.589Z" fill="#4D698A"/>
<path d="M542.028 311.157L512.336 332.826L486.441 321.636L482.644 328.622L502.254 341.98L513.245 346.092L542.028 332.232V311.157Z" fill="#4D698A"/>
<path d="M581.71 266.592L582.35 257.504L574.999 251.812L571.918 255.844L575.238 261.773L574.05 264.855L577.309 269.749L581.71 266.592Z" fill="#EACFC1"/>
<path d="M523.829 369.451L523.235 420.876L528.718 487.075H536.165L545.079 425.999L555.277 364.821L523.829 369.451Z" fill="#112D4E"/>
<path d="M536.124 490.213L528.068 494.244L524.037 490.213L528.068 486.187H536.124V490.213Z" fill="#1D2B56"/>
<path d="M574.913 369.451L575.06 399.203L570.034 487.075H562.582L550.12 428.761L543.464 364.821L574.913 369.451Z" fill="#112D4E"/>
<path d="M562.628 490.213L570.684 494.244L574.71 490.213L570.684 486.187H562.628V490.213Z" fill="#1D2B56"/>
<path d="M582.659 387.363C582.822 392.085 582.715 398.4 580.73 398.634C580.357 398.643 579.99 398.546 579.669 398.355C576.217 396.674 573.755 394.293 570.344 392.679C566.791 390.983 562.729 390.089 558.755 389.475C552.842 388.512 546.866 387.989 540.876 387.911C535.758 387.866 530.444 390.201 525.606 391.465C523.743 391.973 522.23 393.313 520.682 394.379C518.397 395.948 517.397 396.573 517.707 393.364C518.214 388.12 518.722 382.885 519.387 377.656C520.677 367.238 522.433 356.84 525.387 346.752C526.514 342.899 527.824 339.096 529.129 335.299C530.713 330.668 532.3 326.041 533.89 321.418C535.865 315.671 539.195 311.619 545.033 309.609C550.074 307.868 556.338 307.395 561.242 309.827C566.694 312.528 569.283 321.743 571.933 326.668C574.253 330.983 577.182 342.752 578.05 347.407C579.096 352.992 580.081 358.577 580.822 364.136C581.694 370.24 582.236 376.387 582.446 382.55C582.446 383.225 582.583 385.109 582.659 387.363Z" fill="#4D698A"/>
<path d="M555.729 310.66L545.663 310.756C545.663 310.756 534.86 348.514 534.459 355.023C534.073 361.415 531.342 387.317 531.342 387.317C531.342 387.317 542.51 387.581 555.338 389.145C567.897 391.836 568.953 390.247 568.953 390.247C568.953 390.247 562.176 363.019 561.948 355.216C561.719 347.214 560.694 320.788 560.694 320.788L555.729 310.66Z" fill="white"/>
<path d="M554.272 311.274H549.312C549.052 311.275 548.797 311.348 548.575 311.486C548.354 311.624 548.176 311.821 548.06 312.054C547.945 312.288 547.897 312.549 547.922 312.809C547.946 313.068 548.043 313.316 548.201 313.523L550.231 316.189L544.82 366.136L551.48 372.685L556.049 364.913L554.8 316.173L555.607 313.005C555.656 312.802 555.658 312.589 555.614 312.385C555.57 312.18 555.481 311.987 555.353 311.821C555.225 311.655 555.061 311.52 554.874 311.425C554.687 311.331 554.482 311.279 554.272 311.274Z" fill="#4DA8E4"/>
<path d="M549.622 310.858C549.743 310.961 549.883 311.04 550.033 311.091C550.356 311.163 550.69 311.163 551.013 311.091L555.013 310.619C554.572 306.558 556.958 305.618 559.277 303.004C561.597 300.389 560.907 296.759 560.775 293.505C560.797 292.595 560.64 291.689 560.313 290.839C559.638 289.397 558.074 288.6 556.551 288.128C552.673 286.925 548.236 287.219 544.82 289.418C543.885 289.971 543.11 290.758 542.571 291.702C541.81 293.185 542.002 294.957 542.216 296.612C542.49 299.17 543.359 301.629 544.754 303.791C546.089 305.786 548.642 306.745 548.937 309.137C548.96 309.772 549.202 310.381 549.622 310.858Z" fill="#EACFC1"/>
<path d="M542.343 293.672C542.571 294.688 543.048 295.733 542.799 296.754C541.17 296.201 540.109 294.535 539.53 292.845C539.241 292.082 539.11 291.268 539.144 290.453C539.163 290.05 539.267 289.656 539.45 289.296C539.633 288.936 539.891 288.619 540.205 288.367C541.099 287.727 542.703 287.976 542.962 289.138C543.221 290.301 541.987 292.129 542.343 293.672Z" fill="#4D698A"/>
<path d="M533.713 284.696C533.708 284.095 533.852 283.503 534.132 282.971C534.412 282.44 534.819 281.986 535.317 281.65C536.261 281.01 537.347 280.477 537.926 279.462C538.373 278.675 538.434 277.7 538.881 276.923C539.683 275.491 541.419 275.07 542.942 274.583C546.718 273.369 548.754 271.968 552.759 273.522C555.607 274.628 559.288 274.776 561.927 276.39C563.075 277.151 564.037 278.161 564.74 279.345C567.41 283.523 568.05 289.392 566.313 293.743C565.922 294.692 565.45 295.606 564.902 296.475C563.846 298.191 562.714 300.303 560.841 301.14C560.724 300.333 560.12 299.886 559.932 299.11C559.828 298.53 559.808 297.938 559.871 297.353C559.988 295.063 560.689 291.443 558.404 290.306C555.511 288.874 550.089 290.169 547.307 291.382C544.845 292.459 540.708 293.855 538.058 292.703C535.586 291.555 533.606 287.29 533.713 284.696Z" fill="#112D4E"/>
<path d="M558.958 309.325L584.517 301.79L575.06 269.831L582.852 264.241L601.671 301.237L596.467 314.046L572.05 326.652L558.958 309.325Z" fill="#4D698A"/>
<path d="M477.938 326.602L480.614 321.601H487.137L490.574 326.652L483.167 329.907L477.938 326.602Z" fill="#EACFC1"/>
<path d="M480.735 333.118L477.847 326.757C475.478 326.96 473.099 327.276 470.709 327.706C468.32 328.136 465.982 328.666 463.694 329.295L463.237 336.281C463.118 338.088 462.518 339.83 461.5 341.326C460.481 342.823 459.081 344.02 457.444 344.794C455.808 345.568 453.994 345.89 452.191 345.726C450.388 345.563 448.662 344.921 447.19 343.866L441.474 339.769C437.531 342.516 433.864 345.639 430.525 349.095L433.626 355.386C434.426 357.01 434.777 358.818 434.643 360.624C434.509 362.43 433.895 364.166 432.864 365.655C431.833 367.143 430.423 368.328 428.78 369.088C427.137 369.848 425.321 370.155 423.519 369.977L416.544 369.287C414.489 373.629 412.859 378.16 411.676 382.817L417.524 386.726C419.033 387.731 420.246 389.122 421.036 390.754C421.826 392.387 422.165 394.201 422.017 396.008C421.869 397.816 421.239 399.551 420.194 401.032C419.148 402.514 417.725 403.689 416.072 404.435L409.691 407.323C409.894 409.693 410.211 412.072 410.64 414.462C411.07 416.851 411.612 419.19 412.265 421.478L419.25 421.935C421.048 422.062 422.78 422.665 424.267 423.683C425.755 424.7 426.945 426.096 427.715 427.725C428.485 429.355 428.808 431.161 428.649 432.956C428.491 434.752 427.857 436.473 426.814 437.943L422.753 443.68C425.492 447.625 428.61 451.292 432.063 454.631L438.352 451.529C439.977 450.728 441.785 450.375 443.592 450.509C445.398 450.642 447.135 451.256 448.624 452.288C450.113 453.319 451.299 454.729 452.059 456.373C452.819 458.017 453.126 459.835 452.947 461.637L452.257 468.613C456.591 470.67 461.115 472.301 465.765 473.482L469.674 467.633C470.68 466.129 472.07 464.92 473.7 464.133C475.33 463.347 477.14 463.01 478.944 463.158C480.748 463.306 482.479 463.934 483.959 464.976C485.438 466.018 486.613 467.437 487.36 469.085L490.269 475.467C492.638 475.264 495.017 474.947 497.406 474.517C499.795 474.088 502.134 473.548 504.422 472.898L504.879 465.907C504.998 464.1 505.597 462.358 506.616 460.862C507.634 459.365 509.034 458.168 510.671 457.394C512.308 456.62 514.122 456.298 515.924 456.461C517.727 456.625 519.454 457.267 520.925 458.322L526.641 462.419C530.586 459.679 534.253 456.561 537.591 453.108L534.489 446.817C533.69 445.194 533.339 443.387 533.473 441.582C533.606 439.777 534.22 438.041 535.249 436.553C536.279 435.066 537.687 433.88 539.329 433.119C540.971 432.358 542.786 432.05 544.586 432.226L551.561 432.917C553.619 428.575 555.249 424.044 556.43 419.386L550.581 415.477C549.077 414.471 547.869 413.081 547.082 411.451C546.296 409.821 545.959 408.01 546.107 406.206C546.255 404.402 546.882 402.67 547.924 401.191C548.966 399.711 550.385 398.536 552.033 397.789L558.414 394.9C558.211 392.524 557.907 390.138 557.465 387.762C557.023 385.386 556.49 383.045 555.846 380.745L548.856 380.288C547.049 380.169 545.307 379.57 543.811 378.551C542.314 377.532 541.117 376.132 540.344 374.495C539.57 372.858 539.248 371.044 539.411 369.241C539.574 367.438 540.217 365.711 541.271 364.24L545.368 358.523C542.625 354.578 539.504 350.91 536.048 347.572L529.758 350.674C528.134 351.474 526.326 351.825 524.52 351.691C522.715 351.557 520.978 350.943 519.49 349.912C518.002 348.881 516.817 347.471 516.057 345.828C515.297 344.184 514.99 342.368 515.169 340.566L515.859 333.59C511.518 331.533 506.987 329.902 502.33 328.721L498.421 334.57C497.415 336.075 496.025 337.283 494.396 338.07C492.766 338.856 490.955 339.193 489.151 339.045C487.348 338.897 485.616 338.27 484.137 337.227C482.657 336.185 481.483 334.767 480.735 333.118ZM514.128 395.641C515.206 401.585 514.499 407.715 512.094 413.256C509.69 418.798 505.697 423.502 500.62 426.774C495.542 430.046 489.609 431.739 483.57 431.64C477.531 431.54 471.657 429.652 466.69 426.214C461.724 422.776 457.888 417.943 455.668 412.325C453.448 406.707 452.942 400.557 454.216 394.653C455.49 388.748 458.486 383.353 462.825 379.151C467.164 374.949 472.651 372.127 478.593 371.043C482.541 370.323 486.593 370.388 490.516 371.235C494.439 372.081 498.157 373.693 501.458 375.977C504.758 378.262 507.575 381.174 509.749 384.548C511.923 387.922 513.411 391.692 514.128 395.641Z" fill="#6F8AA9"/>
<path d="M418.28 365.375L419.93 370.665L422.672 372.939L423.555 372.117L422.717 370.045L428.428 373.884L431.19 372.081L426.987 364.943L420.392 361.156L418.28 365.375Z" fill="#CC937A"/>
<path d="M373.928 311.289L386.858 313.711L404.539 346.443L425.392 362.552L419.341 369.365L396.929 356.216L373.359 321.256L373.928 311.289Z" fill="#4DA8E4"/>
<path d="M382.116 485.395L388.365 489.807L390.447 493.193C389.268 493.723 388.05 494.158 386.802 494.493C385.482 494.772 375.329 493.208 375.329 493.208V487.217L382.116 485.395Z" fill="#2B2B2B"/>
<path d="M360.658 488.284L364.044 491.67C364.044 491.67 366.907 496.356 365.603 496.356C364.298 496.356 357.272 497.138 356.749 496.356C356.226 495.574 352.323 492.975 351.805 492.452C351.287 491.929 351.526 487.375 351.526 487.375L360.658 488.284Z" fill="#2B2B2B"/>
<path d="M372.633 396.852L368.222 441.387L360.658 488.284H351.521L350.475 439.326C350.475 439.326 343.094 399.071 342.332 385.789L372.633 396.852Z" fill="#112D4E"/>
<path d="M392.274 397.634L384.461 487.217H375.085L372.222 441.387L366.841 400.807L387.325 376.803L392.274 397.634Z" fill="#112D4E"/>
<path d="M394.112 356.058C392.645 350.87 391.487 345.605 390.497 340.32C389.634 335.7 389.289 330.729 387.253 326.424C385.218 322.119 381.36 318.859 378.39 315.199C377.131 313.676 375.786 312.036 373.913 311.294C372.602 310.869 371.229 310.67 369.852 310.706L357.272 310.35C355.749 310.304 354.155 310.274 352.759 310.893C350.673 311.822 349.49 313.98 348.46 315.97C345.825 321.113 345.338 326.815 345.104 332.623C345.104 332.679 346.312 348.27 343.581 360.612C340.85 372.955 341.825 405.589 344.429 404.219C347.668 402.518 351.368 401.609 355.003 400.974C360.148 400.039 365.356 399.487 370.583 399.324L379.771 400.02H385.319C388.649 400.386 388.365 401.508 391.797 401.274C393.985 401.137 395.492 360.897 394.112 356.058Z" fill="#4DA8E4"/>
<path d="M365.562 313.056L358.562 312.752C358.435 310.891 358.459 309.023 358.633 307.167C356.658 306.593 354.369 305.695 353.917 303.694C353.81 303.054 353.81 302.4 353.917 301.76L354.846 293.794C354.893 292.867 355.122 291.957 355.521 291.118C356.313 289.702 357.963 289.012 359.546 288.646C363.577 287.712 368.07 288.352 371.374 290.844C372.285 291.474 373.015 292.332 373.491 293.332C374.151 294.901 373.821 296.688 373.491 298.353C373.177 299.886 372.864 301.423 372.552 302.963C372.187 304.73 371.638 306.745 370.014 307.497C369.146 307.893 368.085 307.847 367.308 308.406C365.907 309.396 366.217 311.503 365.562 313.056Z" fill="#CC937A"/>
<path d="M378.492 279.299C377.949 279.215 377.417 279.069 376.908 278.863C375.217 278.126 374.035 276.649 372.237 275.959C368.416 274.609 364.231 274.719 360.486 276.268C357.074 277.7 352.414 278.253 349.363 280.183C348.103 281.028 347.068 282.168 346.348 283.503C345.081 285.8 344.483 288.406 344.622 291.025C344.761 293.645 345.632 296.173 347.135 298.323C347.835 299.265 348.614 300.144 349.465 300.953C351.206 302.643 353.297 304.735 355.592 305.268C355.531 303.237 353.338 296.967 354.8 295.226C356.734 292.916 360.536 292.972 363.262 293.231C366.506 293.535 369.181 292.489 372.4 292.652C374.05 292.733 375.918 293.068 377.182 292.007C378.644 290.778 381.751 286.879 382.466 285.168C382.759 284.404 382.83 283.573 382.67 282.771C382.51 281.968 382.126 281.228 381.563 280.634C380.614 279.619 379.578 279.492 378.492 279.299Z" fill="#112D4E"/>
<path d="M380.35 359.206C380.352 358.484 380.212 357.768 379.938 357.099C378.7 354.109 365.699 316.646 365.699 316.646C365.381 315.444 365.125 314.228 364.932 313L360.765 312.741L361.45 316.996L363.405 318.671C363.405 318.671 371.395 359.922 371.44 360.643L377.36 367.959L380.35 359.206Z" fill="white"/>
<path d="M420.57 282.939L419.839 279.543C418.668 279.397 417.483 279.303 416.285 279.259C415.092 279.218 413.9 279.259 412.732 279.309L411.762 282.665C411.516 283.528 411.043 284.308 410.393 284.926C409.744 285.545 408.94 285.978 408.067 286.181C407.194 286.385 406.282 286.351 405.426 286.084C404.57 285.816 403.801 285.325 403.198 284.661L400.858 282.076C398.661 282.993 396.558 284.12 394.579 285.442L395.426 288.814C395.644 289.684 395.626 290.597 395.372 291.458C395.118 292.318 394.639 293.096 393.984 293.709C393.329 294.322 392.522 294.749 391.646 294.945C390.771 295.141 389.859 295.1 389.005 294.825L385.695 293.764C384.246 295.651 382.983 297.675 381.923 299.805L384.35 302.313C384.974 302.957 385.414 303.756 385.626 304.627C385.838 305.498 385.813 306.41 385.554 307.268C385.296 308.127 384.812 308.9 384.154 309.509C383.496 310.118 382.687 310.54 381.812 310.731L378.421 311.462C378.268 312.636 378.172 313.821 378.131 315.016C378.096 316.214 378.131 317.402 378.187 318.57L381.522 319.524C382.384 319.771 383.165 320.244 383.783 320.893C384.401 321.543 384.835 322.346 385.038 323.22C385.241 324.094 385.208 325.006 384.94 325.862C384.673 326.718 384.182 327.487 383.517 328.089L380.913 330.43C381.83 332.626 382.959 334.728 384.284 336.705L387.649 335.862C388.52 335.643 389.434 335.661 390.295 335.914C391.156 336.167 391.934 336.646 392.548 337.302C393.162 337.957 393.589 338.765 393.786 339.641C393.982 340.517 393.94 341.43 393.665 342.284L392.599 345.59C394.486 347.041 396.511 348.305 398.645 349.362L401.148 346.94C401.791 346.316 402.59 345.875 403.461 345.663C404.332 345.452 405.244 345.476 406.102 345.735C406.96 345.994 407.734 346.478 408.342 347.136C408.951 347.794 409.373 348.603 409.564 349.479L410.295 352.87C411.47 353.022 412.654 353.117 413.849 353.154C415.042 353.195 416.235 353.154 417.402 353.104L418.357 349.768C418.603 348.905 419.075 348.124 419.724 347.505C420.374 346.886 421.177 346.453 422.05 346.249C422.924 346.044 423.836 346.078 424.692 346.345C425.548 346.612 426.318 347.103 426.92 347.768L429.261 350.352C431.459 349.437 433.562 348.31 435.54 346.986L434.723 343.63C434.505 342.759 434.524 341.847 434.777 340.986C435.031 340.125 435.51 339.348 436.165 338.735C436.82 338.121 437.627 337.695 438.503 337.498C439.378 337.302 440.291 337.344 441.145 337.619L444.454 338.685C445.903 336.795 447.166 334.77 448.226 332.638L445.8 330.135C445.176 329.492 444.735 328.693 444.523 327.822C444.311 326.951 444.336 326.039 444.595 325.18C444.854 324.322 445.337 323.548 445.995 322.94C446.653 322.331 447.462 321.909 448.338 321.718L451.729 320.986C451.881 319.812 451.978 318.627 452.018 317.433C452.054 316.234 452.018 315.046 451.962 313.879L448.627 312.929C447.764 312.683 446.982 312.21 446.363 311.56C445.744 310.91 445.311 310.106 445.107 309.232C444.903 308.357 444.938 307.444 445.206 306.588C445.474 305.731 445.966 304.961 446.632 304.359L449.216 302.019C448.297 299.824 447.168 297.722 445.845 295.744L442.48 296.586C441.61 296.805 440.697 296.787 439.836 296.534C438.975 296.281 438.198 295.802 437.584 295.148C436.97 294.493 436.543 293.686 436.346 292.811C436.149 291.936 436.19 291.023 436.464 290.169L437.53 286.859C435.642 285.409 433.617 284.145 431.484 283.087L428.982 285.513C428.335 286.136 427.535 286.575 426.662 286.784C425.789 286.993 424.876 286.965 424.018 286.702C423.16 286.44 422.388 285.952 421.782 285.291C421.175 284.629 420.757 283.817 420.57 282.939ZM430.215 316.712C430.117 319.704 429.134 322.601 427.39 325.035C425.646 327.469 423.22 329.331 420.418 330.385C417.616 331.44 414.564 331.64 411.648 330.96C408.732 330.28 406.084 328.751 404.037 326.566C401.99 324.38 400.638 321.637 400.15 318.683C399.662 315.729 400.061 312.696 401.297 309.968C402.532 307.241 404.549 304.941 407.091 303.36C409.633 301.779 412.587 300.987 415.58 301.085C419.59 301.218 423.384 302.94 426.125 305.87C428.867 308.801 430.333 312.701 430.2 316.712H430.215Z" fill="#112D4E"/>
<path d="M391.172 325.515L392.193 331.1L384.624 335.309L381.669 327.414L384.243 324.505L391.172 325.515Z" fill="#CC937A"/>
<path d="M352.754 310.888L341.952 316.214L332.977 345.407L345.089 349.494L386.573 334.212L382.781 326.094L351.719 332.115L352.754 310.888Z" fill="#4DA8E4"/>
<path d="M624.301 306.619L621.819 304.522L618.61 305.537L616.768 308.218L617.605 310.508L620.215 312.031L619.225 312.295L619.407 313.102L623.499 314.965C624.484 313.95 627.804 313.153 628.332 312.604L625.596 310.249L624.301 306.619Z" fill="#CC937A"/>
<path d="M702.94 493.472L703.031 494.361L703.33 497.295L697.482 500.864L694.102 498.245L696.878 494.99L697.137 494.833L697.274 495.173L702.94 493.472Z" fill="#484F5B"/>
<path d="M678.583 430.213C685.213 430.644 691.36 430.827 696.198 430.888L696.026 453.562L703.265 493.361L702.95 493.452L697.285 495.153L697.147 494.813L678.136 447.891L677.476 438.321L678.583 430.213Z" fill="#2F4B6C"/>
<path d="M677.131 433.406L677.477 438.321L675.776 450.765L673.822 495.681L673.796 495.031L668.019 495.209L658.882 447.52L658.374 428.04C664.643 429.055 671.217 429.7 677.421 430.132L677.131 433.406Z" fill="#2F4B6C"/>
<path d="M677.431 430.132L678.583 430.213L677.476 438.336L677.131 433.422L677.431 430.132Z" fill="#F5F5F5"/>
<path d="M667.603 495.219L667.999 495.209L673.781 495.031L673.806 495.681L673.892 497.986L667.821 501.123L664.623 498.265L667.603 495.219Z" fill="#484F5B"/>
<path d="M689.091 324.54L689.701 323.017L689.655 322.982C686.949 320.926 685.71 317.346 685.858 313.965C685.988 311.744 686.529 309.567 687.452 307.543C688.124 306.384 688.956 305.326 689.924 304.4C691.67 302.745 694.031 301.435 696.335 301.516C697.274 301.547 696.884 302.278 698.016 301.699C698.208 301.582 698.379 301.435 698.523 301.262L698.838 301.608C699.924 302.74 701.127 303.278 702.432 304.1C704.417 305.344 705.478 307.994 705.006 310.492C704.808 311.508 704.376 312.589 704.625 313.579C704.843 314.442 705.534 315.041 705.97 315.788C706.234 316.235 706.407 316.73 706.478 317.245C704.31 321.19 700.193 324.352 695.96 324.748V324.794C695.904 325.048 695.848 325.302 695.777 325.541C695.467 326.627 694.726 327.774 693.599 327.856C693.071 327.854 692.551 327.732 692.076 327.5L689.162 326.327C689.056 326.302 688.957 326.255 688.869 326.189C688.782 326.124 688.709 326.041 688.655 325.947C688.613 325.763 688.638 325.57 688.726 325.403L689.091 324.54Z" fill="#CC937A"/>
<path d="M668.207 297.069C670.501 296.932 672.527 298.277 674.39 299.572C674.725 297.312 676.893 295.759 678.959 295.15C681.025 294.54 683.233 294.545 685.269 293.748C687.716 292.789 690.132 290.672 692.564 291.362C694.751 291.982 696.117 294.647 697.477 297.008L697.584 296.891C698.573 295.761 699.782 294.845 701.138 294.2C705.503 292.398 705.001 297.846 708.356 297.556C709.163 297.49 709.849 296.845 710.61 296.51C712.052 295.876 713.656 296.378 714.95 297.165C716.245 297.952 717.377 299.008 718.768 299.597C720.001 300.105 721.397 300.247 722.545 300.937C724.271 301.953 723.915 303.847 724.225 305.557C724.565 307.446 725.083 309.995 726.108 311.564C726.844 312.696 727.982 313.437 728.941 314.356C729.9 315.275 730.718 316.569 730.515 317.981C730.312 319.392 729.256 320.408 728.951 321.733C728.535 323.708 728.748 324.779 727.87 326.739C727.413 327.754 726.91 328.82 726.027 329.435C724.855 330.247 723.367 330.034 722.083 329.643C720.798 329.252 719.494 328.719 718.149 328.983C715.225 329.556 715.387 332.445 714.336 334.71C713.634 336.182 712.435 337.36 710.95 338.035C710.064 338.483 709.085 338.717 708.092 338.717C707.099 338.717 706.12 338.483 705.234 338.035C702.655 336.598 701.488 333.252 702.006 330.166C702.267 329.07 702.606 327.994 703.021 326.947C703.153 326.542 703.255 326.128 703.325 325.708C703.564 324.215 702.98 322.032 704.498 321.017C704.898 320.832 705.284 320.62 705.656 320.382C705.925 320.13 706.126 319.814 706.239 319.463C706.496 318.768 706.575 318.019 706.468 317.285C706.396 316.771 706.224 316.276 705.96 315.828C705.524 315.082 704.833 314.483 704.615 313.62C704.366 312.604 704.798 311.564 704.996 310.533C705.473 308.035 704.407 305.385 702.422 304.141C701.117 303.319 699.914 302.78 698.828 301.648L698.513 301.303C698.369 301.475 698.197 301.623 698.005 301.74C696.873 302.318 697.264 301.587 696.325 301.557C694.02 301.476 691.66 302.785 689.914 304.441C687.21 307.027 686.16 310.464 686.018 314.204C685.912 317.595 687.101 319.291 685.487 322.708C685.125 323.465 684.688 324.185 684.182 324.855C682.837 326.668 680.971 328.027 678.832 328.749C678.593 328.749 678.36 328.749 678.126 328.724C676.956 328.625 675.816 328.299 674.771 327.764C673.719 327.233 672.771 326.515 671.974 325.647C670.732 324.311 669.88 322.661 669.512 320.875C669.303 319.859 669.207 318.778 668.552 318.057C668.044 317.483 667.227 317.255 666.689 316.691C664.45 314.341 668.72 310.091 667.76 306.837C667.151 304.806 664.638 303.994 664.09 301.927C663.491 299.597 665.912 297.211 668.207 297.069Z" fill="#112D4E"/>
<path d="M619.844 313.736C620.017 313.706 627.763 326.15 633.164 332.227C638.099 337.776 653.196 346.133 658.831 350.971C657.044 357.241 655.206 364.324 653.881 370.624C645.429 410.732 651.313 426.725 651.313 426.725C653.597 427.233 655.968 427.654 658.384 428.04C664.653 429.055 671.227 429.7 677.431 430.132L678.583 430.213C685.213 430.644 691.36 430.827 696.198 430.888C702.462 430.974 706.513 430.863 706.513 430.863L720.524 351.469L710.935 338.035C710.049 338.483 709.07 338.717 708.077 338.717C707.084 338.717 706.105 338.483 705.219 338.035C702.64 336.598 701.473 333.252 701.99 330.166C702.252 329.07 702.591 327.994 703.006 326.947L701.66 325.068L695.934 324.804C695.878 325.058 695.822 325.312 695.751 325.551C695.442 326.637 694.701 327.785 693.574 327.866C693.046 327.864 692.525 327.742 692.051 327.51L689.162 326.327C689.056 326.302 688.956 326.255 688.869 326.189C688.782 326.124 688.709 326.041 688.655 325.947C688.612 325.763 688.638 325.57 688.726 325.403L689.076 324.525L686.03 324.398C685.599 324.495 684.959 324.632 684.157 324.82C682.812 326.633 680.945 327.991 678.806 328.714C678.568 328.714 678.334 328.714 678.101 328.688C676.931 328.589 675.791 328.263 674.745 327.729C673.693 327.197 672.746 326.48 671.948 325.612C665.349 325.896 654.79 330.013 649.191 326.627C647.368 325.53 628.119 311.396 628.575 311.325C628.575 311.325 620.778 313.533 620.027 313.67L619.844 313.736Z" fill="white"/>
<path d="M648.947 380.144L647.287 377.605C646.272 377.849 645.27 378.143 644.282 378.488C643.294 378.834 642.324 379.22 641.373 379.646L641.642 382.692C641.71 383.477 641.567 384.265 641.228 384.975C640.889 385.686 640.366 386.292 639.714 386.733C639.062 387.174 638.304 387.432 637.518 387.481C636.732 387.53 635.948 387.369 635.246 387.013L632.52 385.632C631.017 387.071 629.656 388.652 628.459 390.353L630.205 392.851C630.656 393.496 630.926 394.25 630.988 395.035C631.049 395.819 630.901 396.606 630.556 397.314C630.212 398.021 629.685 398.624 629.03 399.06C628.375 399.495 627.615 399.748 626.829 399.792L623.783 399.954C623.177 401.937 622.764 403.974 622.55 406.036L625.322 407.331C626.035 407.663 626.647 408.181 627.093 408.829C627.539 409.478 627.803 410.234 627.859 411.019C627.914 411.805 627.758 412.59 627.408 413.295C627.057 414 626.524 414.598 625.865 415.028L623.327 416.688C623.57 417.703 623.86 418.719 624.205 419.693C624.55 420.668 624.936 421.653 625.362 422.597L628.408 422.333C629.192 422.266 629.98 422.409 630.691 422.748C631.401 423.087 632.008 423.609 632.448 424.262C632.889 424.914 633.147 425.672 633.196 426.458C633.245 427.244 633.084 428.028 632.728 428.73L631.342 431.457C632.78 432.97 634.363 434.339 636.068 435.544L638.566 433.797C639.21 433.346 639.964 433.076 640.748 433.014C641.532 432.952 642.319 433.101 643.026 433.445C643.734 433.789 644.336 434.317 644.771 434.972C645.206 435.628 645.458 436.388 645.5 437.173L645.663 440.22C647.663 440.816 649.717 441.217 651.795 441.418L653.089 438.646C653.422 437.932 653.939 437.321 654.588 436.874C655.236 436.428 655.992 436.164 656.777 436.108C657.563 436.053 658.348 436.209 659.053 436.559C659.758 436.91 660.356 437.443 660.785 438.103L662.445 440.641C663.461 440.397 664.476 440.108 665.45 439.763C666.425 439.417 667.415 439.032 668.359 438.6L668.095 435.554C668.026 434.77 668.168 433.982 668.507 433.271C668.845 432.56 669.367 431.953 670.019 431.512C670.671 431.071 671.429 430.813 672.215 430.764C673 430.715 673.785 430.877 674.486 431.233L677.212 432.619C678.728 431.181 680.098 429.598 681.304 427.893L679.553 425.395C679.106 424.748 678.84 423.994 678.782 423.21C678.724 422.427 678.877 421.641 679.224 420.936C679.572 420.231 680.101 419.632 680.758 419.2C681.414 418.768 682.174 418.52 682.959 418.48L686.005 418.318C686.602 416.315 687.003 414.259 687.203 412.179L684.431 410.89C683.718 410.557 683.106 410.04 682.66 409.391C682.214 408.743 681.949 407.987 681.894 407.201C681.839 406.416 681.994 405.63 682.345 404.926C682.695 404.221 683.228 403.623 683.888 403.193L686.426 401.528C686.177 400.512 685.888 399.497 685.543 398.527C685.198 397.558 684.812 396.563 684.385 395.618L681.34 395.882C680.556 395.95 679.769 395.807 679.059 395.469C678.349 395.13 677.742 394.607 677.302 393.956C676.862 393.304 676.604 392.546 676.556 391.761C676.507 390.976 676.669 390.192 677.025 389.49L678.39 386.744C676.952 385.228 675.369 383.858 673.664 382.652L671.172 384.398C670.527 384.851 669.773 385.122 668.988 385.185C668.203 385.247 667.416 385.099 666.707 384.754C665.999 384.41 665.396 383.882 664.961 383.226C664.526 382.569 664.274 381.808 664.232 381.022L664.07 377.976C662.069 377.379 660.015 376.978 657.937 376.778L656.643 379.55C656.315 380.266 655.802 380.882 655.156 381.333C654.51 381.784 653.755 382.054 652.97 382.115C652.185 382.175 651.397 382.025 650.69 381.678C649.982 381.331 649.381 380.801 648.947 380.144ZM667.415 404.803C668.272 407.286 668.372 409.967 667.705 412.508C667.038 415.049 665.632 417.334 663.666 419.076C661.7 420.817 659.261 421.937 656.659 422.293C654.057 422.648 651.407 422.224 649.046 421.074C646.685 419.923 644.717 418.099 643.393 415.83C642.069 413.562 641.447 410.952 641.606 408.33C641.764 405.708 642.697 403.192 644.286 401.1C645.875 399.008 648.048 397.434 650.531 396.578C652.179 396.006 653.923 395.765 655.663 395.868C657.404 395.971 659.108 396.415 660.677 397.177C662.246 397.938 663.649 399.001 664.807 400.306C665.965 401.61 666.855 403.129 667.425 404.777L667.415 404.803Z" fill="#6F8AA9"/>
<path d="M683.385 386.043L683.502 389.582L677.258 391.851L673.664 389.13L673.659 385.012L677.131 384.82L677.243 383.911L678.38 383.18L683.385 386.043Z" fill="#CC937A"/>
<path d="M642.843 358.106C643.304 356.293 643.658 354.454 643.904 352.599C644.151 350.807 644.288 349.001 644.317 347.192L635.296 344.084L633.635 334.769L641.039 328.74C639.704 325.317 637.974 322.061 635.886 319.039L626.755 321.839L619.93 315.287L622.349 306.039C619.33 304.126 616.102 302.563 612.729 301.381L606.945 308.965L597.582 307.604L594.163 298.674C590.487 298.876 586.847 299.508 583.318 300.557L583.118 310.109L574.744 314.525L566.733 309.329C563.884 311.66 561.316 314.313 559.081 317.237L564.522 325.073L560.357 333.565L550.826 334.079C550.335 335.932 549.956 337.812 549.692 339.711C549.464 341.452 549.325 343.204 549.275 344.96L558.298 348.094L559.917 357.415L552.495 363.432C553.835 366.864 555.563 370.132 557.643 373.173L566.787 370.4L573.594 376.975L571.14 386.214C574.245 388.209 577.569 389.838 581.047 391.07L586.81 383.432L596.183 384.754L599.622 393.681C603.297 393.456 606.935 392.809 610.462 391.751L610.636 382.202L618.989 377.748L627.012 382.919C629.855 380.587 632.418 377.933 634.649 375.01L629.166 367.19L633.298 358.665L642.843 358.106ZM592.892 369.337C588.313 368.561 584.067 366.445 580.69 363.257C577.313 360.068 574.958 355.949 573.921 351.422C572.884 346.895 573.213 342.162 574.866 337.822C576.518 333.482 579.421 329.731 583.206 327.041C586.991 324.352 591.489 322.845 596.131 322.713C600.773 322.58 605.35 323.828 609.283 326.297C613.217 328.766 616.331 332.346 618.23 336.584C620.13 340.823 620.73 345.529 619.955 350.108C618.916 356.248 615.481 361.722 610.406 365.328C605.331 368.934 599.031 370.376 592.892 369.337Z" fill="#BAC7D6"/>
<path d="M304.366 490.03L298.01 484.156C296.168 483.222 294.213 482.572 292.634 482.592C291.482 482.592 290.533 482.973 289.959 483.846C289.687 484.26 289.518 484.734 289.468 485.227C289.417 485.721 289.487 486.219 289.67 486.679C289.811 487.002 289.997 487.303 290.223 487.573C290.416 487.806 290.619 488.035 290.827 488.253C290.959 488.395 291.101 488.548 291.259 488.705C292.574 490.132 294.777 492.457 295.655 492.98C296.934 493.752 299.762 495.803 303.097 493.488L303.061 493.457C303.602 493.087 304.016 492.56 304.249 491.948C304.482 491.335 304.523 490.666 304.366 490.03Z" fill="#2B2B2B"/>
<path d="M299.376 438.879L298.868 446.251L296.33 482.135L298.868 486.309C298.868 486.309 299.376 489.644 295.533 489.39C294.386 489.314 290.33 484.156 290.33 484.156L290.913 481.79L288.061 454.847V447.023L286.695 438.331L299.376 438.879Z" fill="#EACFC1"/>
<path d="M259.079 480.917C257.892 480.546 256.79 480.602 255.907 481.303C255.488 481.637 255.155 482.066 254.938 482.556C254.721 483.046 254.625 483.581 254.658 484.115C254.754 484.826 254.976 485.513 255.313 486.146C256.836 489.477 261.156 497.001 266.095 495.625C268.171 495.041 268.958 492.924 268.537 491.056C267.897 488.207 263.029 482.191 259.079 480.917Z" fill="#2B2B2B"/>
<path d="M283.954 434.574L283.096 445.19L262.283 482.699C262.283 482.699 265.278 487.933 263.379 488.385C261.481 488.837 255.912 487.268 255.902 481.348C258.09 474.195 266.699 449.871 266.699 449.871L270.755 443.631L270.694 431.848L283.954 434.574Z" fill="#EACFC1"/>
<path d="M260.44 399.05C260.277 395.918 261.278 387.754 262.303 384.835C266.054 374.173 266.775 368.913 266.775 360.232C266.775 351.55 262.922 324.028 262.922 324.028L278.4 316.067L292.34 316.443L301.589 320.783C301.589 320.783 303.112 354.012 303.671 365.177C304.051 373.137 304.605 380.037 305.331 389.267C305.331 389.267 307.361 410.316 304.219 432.883C304.219 432.883 303.513 440.377 303.204 441.032C303.163 441.255 303.138 441.377 303.138 441.377H267.339V428.512C266.158 424.386 265.027 420.242 263.948 416.079C262.572 410.799 260.745 404.853 260.44 399.05Z" fill="white"/>
<path d="M267.983 318.417L261.892 322.987C261.892 322.987 266.521 354.693 266.77 360.221C267.019 365.75 259.892 387.866 259.892 387.866L289.421 391.719C289.421 391.719 293.761 368.111 295.005 356.383C296.249 344.655 278.39 316.062 278.39 316.062L267.983 318.417Z" fill="#2F4B6C"/>
<path d="M297.584 317.859L302.929 320.946C302.929 320.946 302.762 355.977 304.31 364.913C305.249 370.365 308.92 388.033 308.92 388.033L299.381 391.313C299.381 391.313 293.513 369.213 292.345 357.485C291.177 345.757 292.452 316.59 292.452 316.59L297.584 317.859Z" fill="#2F4B6C"/>
<path d="M297.371 302.714C297.198 293.393 284.842 292.875 280.035 299.572C276.903 303.943 278.659 311.487 283.35 314.549C283.316 314.731 283.272 314.91 283.218 315.087C282.975 315.871 282.792 316.672 282.669 317.483C282.614 317.788 287.411 318.402 287.944 318.463C288.127 318.511 288.322 318.485 288.487 318.392C288.761 318.174 288.736 317.265 288.807 316.945L289.051 315.818C291.995 315.427 294.457 313.366 295.777 310.878C297.097 308.39 297.421 305.512 297.371 302.714Z" fill="#EACFC1"/>
<path d="M296.416 304.948C297.198 307.994 295.401 310.97 293.832 313.523C293.188 314.564 292.193 316.016 293.02 317.209C293.949 318.539 296.254 318.275 297.269 317.275C297.926 316.534 298.396 315.646 298.64 314.686C300.005 310.518 301.919 304.674 301.543 300.293C301.244 296.779 296.934 290.535 292.492 292.769C291.735 293.226 291.124 293.89 290.731 294.683C290.442 295.113 290.247 295.599 290.157 296.109C289.949 298.14 291.914 298.648 293.203 299.765C294.774 301.127 295.895 302.935 296.416 304.948Z" fill="#112D4E"/>
<path d="M280.573 303.989C280.471 305.116 279.898 306.314 279.74 307.471C279.446 309.604 279.923 312.376 279.146 314.325C276.763 313.887 274.547 312.802 272.74 311.188C271.1 309.665 271.395 307.411 271.029 305.172C270.689 303.105 270.258 301.024 270.374 298.932C271.019 287.468 282.456 281.203 292.533 286.371C296.345 288.326 298.01 293.302 295.208 296.566C292.193 300.079 286.071 298.556 282.451 301.161C281.573 301.909 280.922 302.889 280.573 303.989Z" fill="#112D4E"/>
<path d="M301.056 319.814L306.838 323.312L315.016 349.798L336.185 352.459L330.987 358.566L305.98 361.156L297.376 334.953L301.056 319.814Z" fill="#2F4B6C"/>
<path d="M381.532 374.432L385.467 372.401C385.066 369.41 384.374 366.465 383.4 363.608L378.994 363.537C377.856 363.519 376.744 363.197 375.772 362.604C374.801 362.011 374.006 361.169 373.47 360.165C372.933 359.161 372.676 358.032 372.723 356.894C372.771 355.757 373.122 354.653 373.74 353.698L376.126 349.991C374.29 347.597 372.226 345.387 369.963 343.391L366.1 345.539C365.105 346.092 363.981 346.368 362.843 346.34C361.706 346.312 360.596 345.98 359.63 345.379C358.664 344.778 357.876 343.929 357.348 342.921C356.82 341.912 356.571 340.781 356.628 339.644L356.846 335.253C355.455 334.684 354.034 334.176 352.582 333.73C351.13 333.288 349.663 332.917 348.196 332.623L345.932 336.395C345.349 337.377 344.513 338.185 343.512 338.734C342.511 339.282 341.381 339.552 340.239 339.515C339.098 339.477 337.988 339.134 337.025 338.521C336.062 337.908 335.281 337.048 334.764 336.03L332.733 332.1C329.742 332.5 326.797 333.19 323.941 334.161L323.87 338.568C323.851 339.706 323.529 340.818 322.936 341.789C322.343 342.761 321.501 343.556 320.498 344.092C319.494 344.629 318.365 344.887 317.229 344.841C316.092 344.794 314.988 344.445 314.031 343.828L310.351 341.457C307.955 343.29 305.745 345.355 303.752 347.62L305.899 351.484C306.452 352.478 306.728 353.603 306.7 354.74C306.672 355.877 306.341 356.986 305.74 357.953C305.14 358.919 304.292 359.707 303.284 360.235C302.277 360.764 301.147 361.013 300.01 360.958L295.614 360.739C295.046 362.127 294.538 363.549 294.091 365.004C293.65 366.456 293.284 367.918 292.985 369.391L296.762 371.655C297.742 372.239 298.548 373.075 299.096 374.076C299.644 375.077 299.913 376.207 299.875 377.347C299.838 378.488 299.496 379.598 298.884 380.561C298.272 381.524 297.413 382.306 296.396 382.824L292.462 384.855C292.863 387.848 293.555 390.795 294.528 393.653L298.934 393.725C300.072 393.742 301.185 394.064 302.156 394.657C303.128 395.25 303.923 396.093 304.459 397.097C304.995 398.101 305.253 399.23 305.205 400.367C305.158 401.504 304.806 402.608 304.188 403.564L301.802 407.265C303.64 409.658 305.704 411.868 307.965 413.865L311.828 411.712C312.823 411.16 313.948 410.883 315.085 410.911C316.223 410.939 317.332 411.271 318.299 411.872C319.265 412.473 320.053 413.322 320.581 414.331C321.109 415.339 321.357 416.47 321.301 417.607L321.083 422.003C322.474 422.572 323.895 423.08 325.347 423.527C326.799 423.963 328.266 424.334 329.733 424.633L331.997 420.856C332.581 419.875 333.416 419.069 334.418 418.521C335.419 417.974 336.548 417.704 337.689 417.742C338.829 417.779 339.939 418.122 340.902 418.734C341.865 419.346 342.647 420.205 343.165 421.222L345.196 425.151C348.186 424.751 351.131 424.061 353.988 423.09L354.059 418.683C354.077 417.545 354.4 416.433 354.993 415.462C355.586 414.49 356.427 413.695 357.431 413.159C358.434 412.622 359.563 412.364 360.7 412.41C361.837 412.457 362.941 412.807 363.897 413.423L367.598 415.815C369.993 413.978 372.203 411.912 374.197 409.646L372.05 405.782C371.497 404.788 371.221 403.664 371.248 402.526C371.276 401.389 371.608 400.28 372.208 399.314C372.809 398.347 373.657 397.559 374.664 397.031C375.672 396.503 376.802 396.253 377.938 396.309L382.334 396.527C382.903 395.143 383.411 393.721 383.857 392.262C384.299 390.81 384.665 389.348 384.964 387.876L381.187 385.617C380.202 385.036 379.391 384.201 378.839 383.199C378.287 382.197 378.014 381.065 378.05 379.922C378.085 378.779 378.427 377.666 379.04 376.7C379.652 375.734 380.513 374.951 381.532 374.432ZM338.972 401.533C334.439 401.533 330.009 400.189 326.24 397.67C322.472 395.152 319.535 391.572 317.801 387.384C316.067 383.196 315.613 378.588 316.498 374.143C317.382 369.697 319.565 365.613 322.77 362.408C325.976 359.204 330.059 357.021 334.504 356.138C338.95 355.254 343.557 355.708 347.744 357.444C351.932 359.179 355.51 362.117 358.027 365.887C360.545 369.656 361.888 374.088 361.887 378.62C361.885 384.698 359.471 390.526 355.173 394.822C350.876 399.119 345.048 401.533 338.972 401.533Z" fill="#4D698A"/>
<path d="M327.778 363.161L321.9 359.825L325.53 354.094L330.251 353.972L332.977 357.053L327.778 363.161Z" fill="#EACFC1"/>
<path d="M261.861 322.941L267.232 327.104L273.872 366.898L292.751 380.281L290.04 387.515L264.704 375.513L257.181 351.195L261.861 322.941Z" fill="#2F4B6C"/>
<path d="M292.716 387.515L288.523 386.368L291.553 380.281L296.797 379.677L299.518 383.246L292.716 387.515Z" fill="#EACFC1"/>
</g>
<defs>
<clipPath id="clip0">
<rect width="514" height="318" fill="white" transform="translate(230 196)"/>
</clipPath>
</defs>
</svg>
