<svg width="24" height="24" viewBox="0 0 24 24" fill="none" xmlns="http://www.w3.org/2000/svg">
<circle cx="12" cy="12" r="12" fill="#DFE2E6"/>
<path d="M7.5 16.5L8.5 15L11 16L13.5 14L15 13.5L16.5 16V18L15 19H8.5L7.5 18V16.5Z" fill="#B6BDC5"/>
<path fill-rule="evenodd" clip-rule="evenodd" d="M8.66667 5.75C8.66667 6.29426 9.0145 6.75727 9.5 6.92887V11.5384C9.5 11.8404 9.4179 12.1368 9.26249 12.3959L7.35627 15.5729C7.12314 15.9614 7 16.406 7 16.8591V17C7 18.3807 8.11929 19.5 9.5 19.5H14.5C15.8807 19.5 17 18.3807 17 17V16.8591C17 16.406 16.8769 15.9614 16.6437 15.5729L14.7375 12.3959C14.5821 12.1368 14.5 11.8404 14.5 11.5384V6.92887C14.9855 6.75727 15.3333 6.29426 15.3333 5.75C15.3333 5.05964 14.7737 4.5 14.0833 4.5H9.91667C9.22631 4.5 8.66667 5.05964 8.66667 5.75ZM14.0833 5.33333H9.91667C9.68655 5.33333 9.5 5.51988 9.5 5.75C9.5 5.98012 9.68655 6.16667 9.91667 6.16667H14.0833C14.3135 6.16667 14.5 5.98012 14.5 5.75C14.5 5.51988 14.3135 5.33333 14.0833 5.33333ZM10.3333 11.5384V7H13.6667V11.5384C13.6667 11.9915 13.7898 12.4361 14.0229 12.8246L14.3115 13.3055C13.4511 13.4693 12.881 13.9672 12.4345 14.4137C12.3576 14.4907 12.2867 14.5633 12.2199 14.6319C12.0407 14.8157 11.8904 14.9699 11.7288 15.0974C11.5222 15.2606 11.3509 15.3333 11.1667 15.3333C10.6478 15.3333 10.3081 15.1674 9.89467 14.9607L9.88149 14.9541C9.60911 14.8178 9.30527 14.6659 8.92571 14.5769L9.97707 12.8246C10.2102 12.4361 10.3333 11.9915 10.3333 11.5384ZM8.46574 15.3435L8.07084 16.0016C7.91543 16.2607 7.83333 16.5571 7.83333 16.8591V17C7.83333 17.9205 8.57953 18.6667 9.5 18.6667H14.5C15.4205 18.6667 16.1667 17.9205 16.1667 17V16.8591C16.1667 16.5571 16.0846 16.2607 15.9292 16.0016L14.7803 14.0869C13.989 14.1285 13.4952 14.5315 13.0238 15.003C12.9673 15.0595 12.909 15.1193 12.8494 15.1805C12.6584 15.3766 12.4531 15.5873 12.2452 15.7515C11.957 15.979 11.6074 16.1667 11.1667 16.1667C10.4431 16.1667 9.95227 15.9212 9.53518 15.7126L9.52199 15.706C9.1687 15.5294 8.86919 15.3825 8.46574 15.3435Z" fill="#636C77"/>
</svg>
