<svg width="40" height="40" viewBox="0 0 40 40" fill="none" xmlns="http://www.w3.org/2000/svg">
<mask id="mask0" mask-type="alpha" maskUnits="userSpaceOnUse" x="0" y="0" width="40" height="40">
<rect x="0.5" y="0.5" width="39" height="39" fill="#C4C4C4" stroke="white"/>
</mask>
<g mask="url(#mask0)">
<mask id="path-2-inside-1" fill="white">
<path fill-rule="evenodd" clip-rule="evenodd" d="M10 37C19.3888 37 27 29.3888 27 20C27 10.6112 19.3888 3 10 3H3V37H10ZM10 40C21.0457 40 30 31.0457 30 20C30 8.9543 21.0457 0 10 0H0V40H10Z"/>
</mask>
<path fill-rule="evenodd" clip-rule="evenodd" d="M10 37C19.3888 37 27 29.3888 27 20C27 10.6112 19.3888 3 10 3H3V37H10ZM10 40C21.0457 40 30 31.0457 30 20C30 8.9543 21.0457 0 10 0H0V40H10Z" fill="#000813"/>
<path d="M3 3V-9H-9V3H3ZM3 37H-9V49H3V37ZM0 0V-12H-12V0H0ZM0 40H-12V52H0V40ZM15 20C15 22.7614 12.7614 25 10 25V49C26.0163 49 39 36.0163 39 20H15ZM10 15C12.7614 15 15 17.2386 15 20H39C39 3.98374 26.0163 -9 10 -9V15ZM3 15H10V-9H3V15ZM15 37V3H-9V37H15ZM10 25H3V49H10V25ZM18 20C18 24.4183 14.4183 28 10 28V52C27.6731 52 42 37.6731 42 20H18ZM10 12C14.4183 12 18 15.5817 18 20H42C42 2.32689 27.6731 -12 10 -12V12ZM0 12H10V-12H0V12ZM12 40V0H-12V40H12ZM10 28H0V52H10V28Z" fill="white" mask="url(#path-2-inside-1)"/>
<mask id="path-4-inside-2" fill="white">
<path fill-rule="evenodd" clip-rule="evenodd" d="M5 27C11.6274 27 17 21.6274 17 15C17 8.37258 11.6274 3 5 3H3V27H5ZM5 30C13.2843 30 20 23.2843 20 15C20 6.71573 13.2843 0 5 0H0V30H5Z"/>
</mask>
<path fill-rule="evenodd" clip-rule="evenodd" d="M5 27C11.6274 27 17 21.6274 17 15C17 8.37258 11.6274 3 5 3H3V27H5ZM5 30C13.2843 30 20 23.2843 20 15C20 6.71573 13.2843 0 5 0H0V30H5Z" fill="#000813"/>
<path d="M3 3V-9H-9V3H3ZM3 27H-9V39H3V27ZM0 0V-12H-12V0H0ZM0 30H-12V42H0V30ZM5 15V39C18.2548 39 29 28.2548 29 15H5ZM5 15H29C29 1.74517 18.2548 -9 5 -9V15ZM3 15H5V-9H3V15ZM15 27V3H-9V27H15ZM5 15H3V39H5V15ZM8 15C8 16.6569 6.65685 18 5 18V42C19.9117 42 32 29.9117 32 15H8ZM5 12C6.65685 12 8 13.3431 8 15H32C32 0.0883118 19.9117 -12 5 -12V12ZM0 12H5V-12H0V12ZM12 30V0H-12V30H12ZM5 18H0V42H5V18Z" fill="white" mask="url(#path-4-inside-2)"/>
<mask id="path-6-inside-3" fill="white">
<path fill-rule="evenodd" clip-rule="evenodd" d="M3 16.3264C5.36495 15.2029 7 12.7924 7 10C7 7.2076 5.36495 4.7971 3 3.67363V16.3264ZM3 19.5422C2.05296 19.8396 1.04521 20 0 20V0C1.04521 0 2.05296 0.160354 3 0.457802C7.05711 1.73207 10 5.52236 10 10C10 14.4776 7.05711 18.2679 3 19.5422Z"/>
</mask>
<path fill-rule="evenodd" clip-rule="evenodd" d="M3 16.3264C5.36495 15.2029 7 12.7924 7 10C7 7.2076 5.36495 4.7971 3 3.67363V16.3264ZM3 19.5422C2.05296 19.8396 1.04521 20 0 20V0C1.04521 0 2.05296 0.160354 3 0.457802C7.05711 1.73207 10 5.52236 10 10C10 14.4776 7.05711 18.2679 3 19.5422Z" fill="#000813"/>
<path d="M3 16.3264H-9V35.3122L8.14911 27.1655L3 16.3264ZM3 3.67363L8.14911 -7.1655L-9 -15.3121L-9 3.67363H3ZM3 19.5422L-0.595795 8.09361L-0.595802 8.09361L3 19.5422ZM0 20H-12V32H0V20ZM0 0V-12H-12V0H0ZM3 0.457802L-0.595795 11.9064L3 0.457802ZM-5 10C-5 7.98738 -3.81048 6.27647 -2.14911 5.48724L8.14911 27.1655C14.5404 24.1293 19 17.5974 19 10H-5ZM-2.14911 14.5128C-3.81048 13.7235 -5 12.0126 -5 10H19C19 2.40259 14.5404 -4.12934 8.14911 -7.1655L-2.14911 14.5128ZM15 16.3264V3.67363H-9V16.3264H15ZM-0.595802 8.09361C-0.392715 8.02982 -0.188507 8 0 8V32C2.27892 32 4.49863 31.6495 6.5958 30.9908L-0.595802 8.09361ZM0 12C-0.188516 12 -0.392721 11.9702 -0.595795 11.9064L6.5958 -10.9908C4.49864 -11.6495 2.27893 -12 0 -12V12ZM-0.595795 11.9064C-1.39636 11.655 -2 10.9137 -2 10H22C22 0.131053 15.5106 -8.19082 6.5958 -10.9908L-0.595795 11.9064ZM-2 10C-2 9.08634 -1.39636 8.34505 -0.595795 8.09361L6.59579 30.9908C15.5106 28.1908 22 19.8689 22 10H-2ZM12 20V0H-12V20H12Z" fill="white" mask="url(#path-6-inside-3)"/>
</g>
</svg>
