<svg width="46" height="14" viewBox="0 0 46 14" fill="none" xmlns="http://www.w3.org/2000/svg">
<path d="M37.0023 11.5652H9.19446L11.4086 13.7585L37.0023 11.5652Z" fill="#9299A3"/>
<path d="M11.7715 2.68758V3.01974C11.2989 2.68829 10.7351 2.50818 10.156 2.50366C8.21622 2.50366 6.72815 4.26601 6.72815 6.42641C6.72815 8.5868 8.20791 10.3464 10.156 10.3464C10.7348 10.3429 11.2986 10.1637 11.7715 9.83307V10.157H13.4841V2.68758H11.7715ZM10.156 8.54837C9.19719 8.54837 8.49333 7.60954 8.49333 6.42641C8.49333 5.24327 9.19719 4.30719 10.156 4.30719C11.1148 4.30719 11.7965 5.24327 11.7965 6.42641C11.7965 7.60954 11.1203 8.54837 10.156 8.54837Z" fill="#9299A3"/>
<path d="M25.494 2.6875V7.07966C25.494 7.90319 24.9231 8.5977 24.0918 8.5977C23.2605 8.5977 22.6896 7.90319 22.6896 7.07966V2.6875H20.9716V7.07966C20.9716 8.88044 22.2158 10.3463 24.0198 10.3463C24.547 10.3419 25.0608 10.1803 25.494 9.8824V10.1569H27.2065V2.6875H25.494Z" fill="#9299A3"/>
<path d="M41.4472 10.1569V5.76477C41.4472 4.94124 42.018 4.24399 42.8493 4.24399C43.6806 4.24399 44.2543 4.94124 44.2543 5.76477V10.1569H45.9668V5.76477C45.9668 3.96124 44.7226 2.49536 42.902 2.49536C42.3812 2.50309 41.8747 2.66463 41.4472 2.95928V2.68477H39.7346V10.1569H41.4472Z" fill="#9299A3"/>
<path d="M1.79289 10.1571V7.26648H3.04819L5.26506 10.1571H7.50687L4.84385 6.66805C5.40729 6.27346 5.82922 5.71136 6.04847 5.06323C6.26771 4.41511 6.27288 3.71465 6.06321 3.06342C5.85355 2.41219 5.43996 1.84404 4.8824 1.44134C4.32485 1.03863 3.6523 0.822313 2.96229 0.823737H0V10.1571H1.79289ZM1.79289 2.59433H2.96229C3.3496 2.59433 3.72105 2.74674 3.99492 3.01804C4.26879 3.28935 4.42265 3.65731 4.42265 4.04099C4.42265 4.42467 4.26879 4.79264 3.99492 5.06394C3.72105 5.33524 3.3496 5.48766 2.96229 5.48766H1.79289V2.59433Z" fill="#9299A3"/>
<path d="M31.8176 8.39471C31.6496 8.51205 31.4496 8.57617 31.244 8.57863C31.1286 8.57594 31.0149 8.54945 30.9104 8.50084C30.8058 8.45223 30.7127 8.38257 30.6368 8.29631C30.5609 8.21005 30.504 8.10907 30.4697 7.99982C30.4355 7.89057 30.4245 7.77544 30.4376 7.66177V4.46373H31.9035V2.68765H30.4376V0.82373H28.7251V2.68491H27.819V4.46099H28.7251V7.68648C28.7099 8.02869 28.7642 8.37044 28.8849 8.69144C29.0056 9.01243 29.1903 9.3061 29.4278 9.55501C29.6654 9.80392 29.9511 10.003 30.2678 10.1404C30.5846 10.2777 30.926 10.3506 31.2717 10.3547C31.8569 10.3366 32.4284 10.1743 32.9344 9.88255L31.8176 8.39471Z" fill="#9299A3"/>
<path d="M17.7404 6.19305L20.6778 2.68756H18.278L16.2247 5.29266V0.20874H14.4595V10.1625H16.2247V7.09344L18.7491 10.1625H21.1489L17.7404 6.19305Z" fill="#9299A3"/>
<path d="M35.7747 2.49805C33.7906 2.49805 32.369 4.22471 32.369 6.42628C32.369 8.7404 34.1536 10.3545 35.9437 10.3545C36.8471 10.3545 38.0054 10.0471 38.9753 8.68001L37.465 7.8153C36.2929 9.52275 34.3448 8.6553 34.1203 6.94785H39.0529C39.4741 4.26315 37.7228 2.49805 35.7747 2.49805ZM37.2683 5.46001H34.1841C34.5443 3.71138 36.9358 3.60981 37.2683 5.46001Z" fill="#9299A3"/>
</svg>
