<svg width="863" height="782" viewBox="0 0 863 782" fill="none" xmlns="http://www.w3.org/2000/svg">
<path d="M217.5 625C217.5 708.2 134 761 0.5 782L863 782.5V169C856 140 843.504 14.1239 683 1.4999C505 -12.5001 523.5 186.5 340 169C195.559 155.225 44 211 44 352.5C44 508.5 217.5 521 217.5 625Z" fill="#E7EDF3"/>
<g clip-path="url(#clip0)">
<path opacity="0.3" d="M596.75 520.258L426.208 517.923L326.027 519.324L312.197 523.06L300.399 526.797L486.317 531L662.451 526.33L696 519.324L644.744 520.258H596.75Z" fill="#4D698A"/>
<path d="M525.668 312.371C524.936 311.871 522.271 305.949 522.961 305.935C523.713 305.951 524.462 306.04 525.197 306.201C524.941 304.132 522.97 298.528 527.028 300.396C528.794 301.209 530.686 305.608 530.621 307.402C530.621 307.444 530.621 307.481 530.621 307.523L527.359 312.973C526.75 312.937 526.163 312.728 525.668 312.371Z" fill="#EAC5B0"/>
<path d="M561.114 351.77L567.693 351.481C567.809 349.73 567.787 347.973 567.628 346.226C567.628 346.437 571.155 344.582 571.467 344.162C572.362 342.953 572.464 340.916 572.837 339.492C573.629 336.423 574.37 332.953 572.753 330.244C571.081 327.442 567.455 326.461 564.18 326.373C560.07 326.265 555.48 327.466 553.365 331.001C551.459 334.196 553.863 338.903 554.553 342.28C554.893 343.947 555.41 345.844 556.953 346.549C557.773 346.922 558.765 346.88 559.497 347.408C560.787 348.314 560.498 350.299 561.114 351.77Z" fill="#EAC5B0"/>
<path d="M546.888 324.878C546.645 322.599 546.402 320.322 546.156 318.046C546.005 317.207 546.037 316.345 546.249 315.519C546.715 314.179 548.062 313.343 549.423 312.974C550.783 312.605 552.218 312.586 553.616 312.282C555.089 311.96 556.519 311.302 558.024 311.348C560.885 311.474 563.075 314.151 565.908 314.59C569.822 315.22 573.42 313.417 575.787 318.041C576.22 318.886 576.341 319.867 576.719 320.74C577.212 321.866 578.116 322.758 578.82 323.767C581.914 328.208 580.917 334.952 577.161 338.712C575.339 340.538 574.598 342.187 572.087 342.775C573.238 340.44 571.719 331.099 568.578 330.067C567.744 329.792 565.242 330.814 564.319 330.945C562.284 331.172 560.285 331.652 558.369 332.374C555.493 333.597 552.442 334.356 549.329 334.625C549.144 334.692 548.945 334.71 548.751 334.676C548.557 334.643 548.375 334.559 548.222 334.434C548.07 334.309 547.953 334.146 547.883 333.962C547.812 333.778 547.79 333.578 547.82 333.383C547.503 330.559 547.192 327.724 546.888 324.878Z" fill="#2F4B6C"/>
<path d="M595.953 519.772L596.839 523.485L590.311 528.964L585.726 526.134L588.549 521.538L595.073 516.06L595.953 519.772Z" fill="#212940"/>
<path d="M580.977 404.924L583.657 416.198L580.26 468.637L596.061 518.484L589.062 521.711L557.404 464.163L553.644 445.78L551.734 406.918L580.977 404.924Z" fill="#3B455A"/>
<path d="M537.126 409.393L536.562 458.105L545.723 520.912H552.763L557.209 462.962L566.845 405.008L537.126 409.393Z" fill="#3B455A"/>
<path d="M552.721 520.072V523.887L545.108 527.708L541.301 523.887L545.108 520.072H552.721Z" fill="#212940"/>
<path d="M591.256 438.863C591.359 444.598 591.214 452.318 589.416 452.603C589.065 452.611 588.724 452.486 588.461 452.253C585.353 450.175 583.153 447.251 580.073 445.247C576.863 443.141 573.186 442.025 569.585 441.24C564.203 440.011 558.714 439.317 553.197 439.167C548.882 439.078 544.544 439.526 540.248 439.965C536.669 440.33 533.342 441.628 529.703 441.32C525.852 440.972 522.177 439.544 519.098 437.2C518.968 437.118 518.868 436.997 518.809 436.855C518.775 436.675 518.793 436.488 518.86 436.318C519.62 433.758 520.169 431.222 521.553 429.107C523.1 426.739 524.2 423.731 525.318 421.036C527.737 415.346 529.792 409.507 531.469 403.555C533.929 395.429 536.739 387.508 539.12 379.349C540.77 373.698 542.27 367.944 544.507 362.582C546.259 358.379 549.381 352.251 553.141 350.406C554.413 349.781 555.815 349.725 557.19 349.673L569.664 349.234C571.178 349.183 572.758 349.145 574.137 349.907C576.211 351.056 577.399 353.718 578.401 356.202C582.99 367.346 585.917 379.358 587.557 391.748C588.409 398.217 589.202 404.699 589.821 411.205C590.506 418.463 590.977 425.758 591.079 433.063C591.103 433.866 591.21 436.14 591.256 438.863Z" fill="white"/>
<path d="M563.509 378.704C563.35 381.726 563.686 384.743 564.021 387.741L570.144 442.473L536.651 442.1C537.054 435.265 537.458 428.429 537.862 421.592C538.044 417.214 538.459 412.849 539.106 408.515C540.271 401.575 542.606 395.046 544.926 388.577C549.213 376.631 553.501 364.681 557.791 352.728C557.973 352.089 558.275 351.492 558.681 350.967C559.197 350.487 559.848 350.178 560.545 350.084C563.737 349.374 567.343 348.776 570.549 349.379C571.351 353.115 568.392 359.621 567.287 363.1C565.703 368.163 563.797 373.188 563.509 378.704Z" fill="white"/>
<path d="M543.328 365.707L528.436 343.49L524.629 308.434L530.863 307.042L539.171 338.978L553.719 351.822L543.328 365.707Z" fill="white"/>
<path d="M522.033 396.517L518.632 397.124L516.158 395.34L515.514 395.672L515.887 396.484L513.413 395.588L511.4 396.312L510.631 399.058L511.74 401.781L514.536 402.262L517.705 401.085L522.401 400.459L522.033 396.517Z" fill="#EAC5B0"/>
<path d="M518.571 394.934L545.005 383.398L572.916 365.73L581.504 377.523L556.319 397.633L519.694 401.603L518.571 394.934Z" fill="white"/>
<path d="M463.145 350.061L466.742 348.043L467.679 344.522L468.522 344.34L468.788 345.372L470.4 342.672L472.8 341.818L475.582 343.765L476.611 347.118L474.394 349.683L470.582 350.995L465.778 353.97L463.145 350.061Z" fill="#EAC5B0"/>
<path d="M462.805 347.768L468.201 354.176L448.22 373.604L442.834 375.346L419.885 357.006L426.022 344.447L443.137 359.023L462.805 347.768Z" fill="white"/>
<path d="M384.482 518.175L383.68 521.86L390.031 527.105L394.407 524.205L391.634 519.74L385.283 514.49L384.482 518.175Z" fill="#212940"/>
<path d="M406.689 404.896L399.607 421.27L398.936 467.348L384.37 516.91L391.14 519.917L420.873 462.374L424.256 444.145L425.598 405.76L406.689 404.896Z" fill="#3B455A"/>
<path d="M440.993 408.567L441.553 456.854L432.476 519.109H425.491L421.083 461.664L411.531 404.219L440.993 408.567Z" fill="#3B455A"/>
<path d="M425.533 518.278V522.061L433.081 525.844L436.856 522.061L433.081 518.278H425.533Z" fill="#212940"/>
<path d="M427.248 343.181L408.707 342.495C408.707 342.495 397.626 352.237 391.881 377.597C386.043 403.41 392.967 440.573 392.967 440.573C392.967 440.573 442.713 433.927 450.872 432.899L438.417 381.936L427.248 343.181Z" fill="white"/>
<path d="M420.603 345.082L414.107 344.443C414.085 342.703 414.2 340.965 414.452 339.244C412.644 338.609 410.562 337.661 410.259 335.77C410.19 335.167 410.225 334.558 410.361 333.967C410.781 331.51 411.201 329.051 411.624 326.588C411.712 325.727 411.971 324.892 412.383 324.131C413.194 322.852 414.764 322.286 416.251 322.025C420.053 321.362 424.196 322.179 427.145 324.673C427.969 325.304 428.612 326.141 429.009 327.102C429.54 328.591 429.144 330.24 428.743 331.772L427.639 336.022C427.215 337.652 426.6 339.506 425.034 340.118C424.205 340.445 423.222 340.351 422.471 340.832C421.111 341.682 421.293 343.663 420.603 345.082Z" fill="#EAC5B0"/>
<path d="M441.758 320.479C441.776 318.82 441.597 317.164 441.226 315.547C440.649 312.903 437.541 311.717 434.847 311.53C429.028 311.124 423.417 308.481 417.733 310.522C414.471 311.685 410.128 311.965 407.188 313.609C405.976 314.334 404.957 315.344 404.22 316.551C402.928 318.63 402.244 321.03 402.244 323.48C402.244 325.929 402.928 328.329 404.22 330.408C404.822 331.321 405.503 332.179 406.256 332.972C407.789 334.639 409.625 336.708 411.736 337.306C411.782 335.415 410.058 329.46 411.503 327.905C413.8 325.443 418.995 326.298 421.847 326.896C424.96 327.554 427.737 329.759 430.822 330.226C433.039 330.562 435.868 329.465 437.755 328.316C440.695 326.518 441.683 323.538 441.758 320.479Z" fill="#2F4B6C"/>
<path d="M422.131 345.479L441.627 423.633L443.225 433.885L418.939 437.084C418.939 437.084 419.895 399.66 419.578 394.672C419.261 389.684 415.654 378.886 415.105 367.262C414.783 360.532 412.654 348.454 414.145 344.517L422.131 345.479Z" fill="white"/>
<path d="M440.239 386.709L444.586 388.087L448.123 386.172L448.905 386.719L448.276 387.713L451.664 386.971L454.171 388.26L454.711 391.977L452.796 395.349L449.059 395.499L445.122 393.42L439.092 391.791L440.239 386.709Z" fill="#EAC5B0"/>
<path d="M443.934 387.013L423.692 382.254C421.875 381.824 419.992 381.735 418.175 381.292C415.519 380.652 414.792 380.423 414.42 377.887C413.334 370.526 414.708 362.895 413.599 355.647C410.934 355.38 408.362 354.745 405.641 354.783C401.2 354.843 401.587 357.907 401.335 361.321C401.037 365.37 400.869 369.429 400.832 373.487C400.832 376.855 399.705 391.44 404.634 392.505C408.166 393.285 443.775 395.181 443.747 395.914C443.757 395.616 443.934 387.013 443.934 387.013Z" fill="white"/>
<g style="mix-blend-mode:multiply" opacity="0.3">
<g style="mix-blend-mode:multiply" opacity="0.3">
<path d="M499.188 529.45C538.789 522.537 565.648 486.754 559.179 449.527C552.71 412.299 515.363 387.725 475.762 394.638C436.161 401.551 409.302 437.334 415.771 474.561C422.24 511.789 459.587 536.363 499.188 529.45Z" fill="#D8D8D8"/>
</g>
</g>
<path d="M554.721 450.315C552.083 435.151 544.422 421.32 532.976 411.057C521.53 400.794 506.967 394.698 491.639 393.752L485.115 356.254L486.569 355.997C487.517 355.831 488.361 355.296 488.915 354.508C489.47 353.72 489.69 352.744 489.528 351.794L488.866 347.978C488.701 347.028 488.167 346.182 487.381 345.626C486.595 345.07 485.621 344.85 484.673 345.012L450.629 350.953C449.682 351.12 448.839 351.655 448.283 352.442C447.728 353.23 447.506 354.205 447.666 355.156L448.332 358.972C448.497 359.922 449.031 360.768 449.818 361.323C450.604 361.879 451.578 362.1 452.526 361.938L453.98 361.685L460.503 399.184C448.72 404.259 438.602 412.559 431.307 423.131C424.012 433.704 419.836 446.122 419.257 458.963C418.678 471.805 421.719 484.55 428.032 495.739C434.345 506.929 443.675 516.109 454.953 522.23C466.231 528.35 479.001 531.163 491.8 530.346C504.599 529.529 516.91 525.115 527.322 517.609C537.734 510.104 545.826 499.811 550.672 487.91C555.517 476.008 556.921 462.979 554.721 450.315Z" fill="#4D698A"/>
<path d="M533.538 429.205C530.742 434.081 511.414 451.45 491.601 451.651C484.025 451.725 465.251 450.96 447.992 459.095C443.901 461.024 432.527 468.268 429.862 472.326C431.404 481.009 434.88 489.231 440.032 496.38C445.183 503.53 451.877 509.423 459.615 513.621C467.353 517.819 475.935 520.214 484.724 520.627C493.514 521.04 502.282 519.461 510.378 516.008C518.475 512.554 525.689 507.315 531.486 500.681C537.282 494.046 541.511 486.186 543.858 477.686C546.204 469.187 546.608 460.266 545.039 451.588C543.47 442.911 539.969 434.699 534.796 427.566C534.316 428.063 533.894 428.613 533.538 429.205Z" fill="#F7F7F7"/>
<path d="M388.407 366.23L350.037 375.25L350.975 379.261L389.345 370.24L388.407 366.23Z" fill="#F7F7F7"/>
<path opacity="0.2" d="M385.395 353.303L347.166 362.388L348.111 366.384L386.34 357.298L385.395 353.303Z" fill="#2F4B6C"/>
<path opacity="0.6" d="M382.666 341.697L344.296 350.717L345.235 354.728L383.605 345.707L382.666 341.697Z" fill="#2F4B6C"/>
<path opacity="0.6" d="M372.261 308.789L339.013 316.605L339.952 320.616L373.2 312.8L372.261 308.789Z" fill="#2F4B6C"/>
<path d="M371.952 295.923L333.582 304.943L334.521 308.953L372.891 299.933L371.952 295.923Z" fill="white"/>
<path opacity="0.2" d="M361.169 411.278L394.417 403.462L393.479 399.451L360.231 407.267L361.169 411.278Z" fill="#2F4B6C"/>
<path opacity="0.6" d="M361.475 424.15L399.845 415.129L398.906 411.119L360.537 420.139L361.475 424.15Z" fill="#2F4B6C"/>
<path d="M351.496 381.45C356.832 387.475 363.728 390.189 370.391 392.818C375.12 394.686 379.594 396.447 383.415 399.3C390.553 404.625 396.187 412.592 398.693 419.705L404.993 418.225C402.165 409.683 395.618 400.342 387.263 394.121C382.748 390.754 377.665 388.75 372.749 386.812C366.514 384.355 360.634 382.029 356.31 377.163C353.867 374.413 351.948 371.238 350.648 367.794C348.006 360.831 348.174 353.237 351.114 346.969C352.606 344.02 354.456 341.267 356.622 338.773C357.805 337.371 359.082 335.914 360.322 334.527C363.909 330.501 367.628 326.34 370.214 321.235C375.083 311.628 376.705 299.672 375.2 290.579L368.914 292.055C370.074 299.728 368.658 310.055 364.473 318.312C362.265 322.664 358.989 326.335 355.518 330.226C354.245 331.627 352.931 333.126 351.673 334.635C348.784 338.109 346.632 341.341 345.28 344.232C341.613 352.074 341.38 361.513 344.637 370.087C346.212 374.263 348.537 378.114 351.496 381.45Z" fill="#2F4B6C"/>
<path d="M361.137 334.336C362.861 335.027 364.641 335.737 366.332 336.484C369.906 338.063 372.856 339.753 374.906 341.374C380.307 345.685 383.825 352.41 384.552 359.827C384.908 363.491 384.592 367.19 383.62 370.741C381.914 377.023 377.669 381.726 373.173 386.709C369.631 390.632 365.969 394.696 363.416 399.726C358.7 409.034 356.976 420.308 358.229 429.214L364.543 427.734C363.611 420.261 365.144 410.598 369.175 402.649C371.332 398.385 374.557 394.817 377.963 391.039C382.772 385.714 387.748 380.208 389.85 372.437C391.023 368.128 391.398 363.64 390.959 359.196C390.064 350.052 385.675 341.715 378.913 336.311C376.421 334.326 373.061 332.393 368.928 330.567C367.134 329.777 365.303 329.044 363.527 328.334C358.695 326.396 354.129 324.565 350.22 321.651C342.811 316.121 336.963 307.505 334.596 300.111L328.31 301.592C330.999 310.409 337.75 320.395 346.375 326.812C350.96 330.259 356.156 332.332 361.137 334.336Z" fill="#2F4B6C"/>
<path d="M510.347 322.282C510.068 322.282 509.79 322.267 509.513 322.235C502.901 321.483 499.956 312.268 498.651 304.679C497.011 295.119 496.913 282.728 498.386 269.721C499.858 256.714 502.733 244.66 506.475 235.712C509.457 228.608 514.364 220.295 520.99 221.047C527.616 221.799 530.542 231.009 531.846 238.603C533.491 248.163 533.585 260.577 532.112 273.56C530.64 286.544 527.769 298.622 524.028 307.57C521.181 314.37 516.54 322.282 510.347 322.282ZM520.174 227.095C518.893 227.095 515.715 229.346 512.066 238.07C508.539 246.477 505.823 257.98 504.415 270.408C503.008 282.836 503.083 294.638 504.63 303.642C506.279 313.249 508.986 316.042 510.184 316.182C511.381 316.322 514.648 314.202 518.408 305.211C521.931 296.805 524.647 285.302 526.059 272.874C527.471 260.446 527.392 248.644 525.845 239.64C524.191 230.033 521.488 227.24 520.286 227.1L520.174 227.095Z" fill="#4D698A"/>
<path d="M547.959 305.272C543.971 305.272 539.404 304.011 535.495 302.568C526.413 299.215 515.64 293.087 505.161 285.316C484.864 270.272 467.782 250.344 474.407 241.363C481.033 232.382 505.049 242.918 525.346 257.966C535.831 265.733 544.828 274.265 550.685 281.986C555.345 288.118 560.056 296.557 556.1 301.919C554.283 304.371 551.324 305.272 547.959 305.272ZM482.431 244.044C480.824 244.044 479.761 244.38 479.314 244.978C477.119 247.957 485.53 263.164 508.795 280.407C518.828 287.847 529.065 293.68 537.62 296.837C546.743 300.209 550.513 299.261 551.231 298.285C551.948 297.309 551.752 293.423 545.867 285.675C540.346 278.399 531.781 270.3 521.749 262.86C503.204 249.134 488.671 244.044 482.431 244.044Z" fill="white"/>
<path d="M482.035 297.673C476.192 297.673 470.591 296.389 468.667 291.957C466.011 285.843 472.497 278.679 478.405 273.743C485.861 267.536 496.522 261.249 508.479 256.033C531.627 245.935 557.404 241.087 561.831 251.315C564.487 257.429 558.001 264.589 552.092 269.53C544.637 275.737 533.976 282.023 522.019 287.24C510.067 292.452 498.195 295.997 488.596 297.22C486.421 297.51 484.229 297.661 482.035 297.673ZM548.719 251.698C541.003 251.698 527.821 254.253 510.902 261.628C499.462 266.62 489.304 272.589 482.296 278.441C474.841 284.676 473.76 288.422 474.24 289.528C474.72 290.635 478.182 292.415 487.827 291.182C496.871 290.028 508.152 286.647 519.596 281.654C531.036 276.666 541.198 270.697 548.206 264.841C555.662 258.606 556.743 254.86 556.258 253.749C555.727 252.525 553.104 251.698 548.719 251.698Z" fill="#2F4B6C"/>
<path d="M312.411 520.926L312.309 521.972L311.978 525.447L304.961 528.459L301.951 524.756L305.627 521.51L305.963 521.365L306.004 521.799L312.411 520.926Z" fill="#212940"/>
<path d="M299.723 459.95L300.408 462.719L305.963 521.365L312.644 518.502L305.963 521.37L306.004 521.804L312.411 520.931L312.766 520.884L317.481 460.155C311.214 460.123 304.975 460.029 299.723 459.95Z" fill="#3B455A"/>
<path d="M340.826 460.123L339.535 475.474L326.581 515.275L320.249 514.43L320.146 515.233H320.109L324.769 474.218L320.775 460.207C328.128 460.225 335.313 460.221 340.826 460.123Z" fill="#3B455A"/>
<path d="M326.581 515.275L326.977 515.326L329.871 519.31L326.041 522.397L319.783 517.965L320.146 515.209L326.334 516.031L326.581 515.275Z" fill="#212940"/>
<path d="M326.581 515.275L326.334 516.032L320.146 515.21L320.249 514.43L326.581 515.275Z" fill="#3E3D3B"/>
<path d="M296.928 370.867C296.117 374.706 293.083 377.527 290.12 380.208C292.082 375.153 294.294 370.199 296.751 365.366C297.198 367.166 297.259 369.042 296.928 370.867Z" fill="#E0E0E1"/>
<path d="M285.954 459.716C285.954 459.716 291.676 459.833 299.723 459.95C304.975 460.029 311.214 460.104 317.5 460.155H320.761C328.11 460.202 335.295 460.197 340.798 460.099C344.963 460.029 348.174 459.898 349.772 459.693L336.362 390.067L336.311 389.848L332.737 375.262L327.523 353.975L314.527 347.768C313.153 347.531 311.871 346.919 310.823 345.998L310.357 345.773C310.497 346.339 310.682 346.891 310.911 347.427C311 347.628 311.097 347.824 311.195 348.011C312.281 349.991 313.958 351.85 313.916 354.105C313.904 354.522 313.841 354.936 313.73 355.338C313.519 356.074 313.264 356.796 312.966 357.501C310.082 365.076 313.255 373.623 317.942 380.021C320.347 383.29 323.534 386.135 324.89 389.964C325.131 390.633 325.287 391.33 325.356 392.038C325.673 395.485 324.051 399.244 320.738 399.805C319.96 399.936 319.131 399.884 318.408 400.221C315.962 401.36 317.01 405.386 315.207 407.39C314.038 408.688 312.057 408.735 310.31 408.683C309.727 408.723 309.145 408.601 308.628 408.328C307.607 407.66 307.696 406.18 307.407 404.998C306.862 402.855 304.728 401.449 302.575 400.977C300.422 400.505 298.19 400.758 295.986 400.758C293.232 400.758 290.395 400.356 287.99 399.053C287.03 398.533 286.158 397.864 285.404 397.073C281.066 423.694 285.954 459.716 285.954 459.716Z" fill="white"/>
<path d="M360.089 401.313C360.937 401.047 367.222 402.63 366.808 403.182C366.331 403.763 365.797 404.295 365.214 404.769C367.003 405.867 372.614 407.772 368.616 409.813C366.878 410.696 362.265 409.454 360.895 408.277L360.802 408.197L358.574 402.238C358.983 401.794 359.507 401.474 360.089 401.313Z" fill="#EAC5B0"/>
<path d="M333.594 383.996L358.546 402.159L358.574 402.238L360.816 408.198L361.393 409.744C347.955 408.002 335.551 399.964 322.863 394.467L333.594 383.996Z" fill="white"/>
<path d="M314.527 347.768C313.153 347.532 311.871 346.919 310.823 345.998L314.527 347.768Z" fill="#E1CFB5"/>
<path d="M325.589 330.59C325.258 327.732 324.07 325.854 322.43 324.813C322.131 325.658 321.568 326.681 320.934 327.083C320.713 327.24 320.462 327.351 320.198 327.41C319.769 327.484 319.489 327.27 318.651 327.274C316.885 327.274 315.3 327.512 313.912 328.736C310.385 331.856 309.066 340.211 310.282 345.498C310.459 345.676 310.636 345.839 310.823 345.998L314.527 347.768C315.725 347.949 316.949 347.84 318.096 347.45L318.609 347.268C321.549 346.115 323.814 343.191 324.876 340.08C325.938 336.97 325.948 333.696 325.589 330.59Z" fill="#EAC5B0"/>
<path d="M323.478 319.545C322.818 319.726 322.178 319.974 321.568 320.283L321.381 320.044C315.762 313.282 307.831 319.064 303.563 324.224C300.045 328.484 297.114 333.369 295.767 338.773C294.514 343.831 294.09 351.266 294.649 356.441C294.957 359.458 296.145 362.414 296.774 365.366C297.224 367.171 297.284 369.051 296.951 370.881C296.14 374.72 293.107 377.541 290.143 380.222L288.927 381.32C285.628 384.327 282.404 388.358 283.13 392.762C283.447 394.392 284.238 395.892 285.404 397.073C286.162 397.859 287.038 398.521 288 399.034C290.427 400.342 293.251 400.762 295.996 400.758C298.2 400.758 300.432 400.505 302.584 400.977C304.737 401.449 306.871 402.845 307.416 404.998C307.715 406.18 307.617 407.66 308.637 408.328C309.145 408.595 309.715 408.717 310.287 408.683C312.034 408.735 314.014 408.683 315.184 407.39C316.997 405.386 315.939 401.36 318.385 400.22C319.103 399.884 319.932 399.936 320.715 399.805C324.028 399.244 325.649 395.485 325.333 392.038C325.264 391.33 325.107 390.633 324.867 389.964C323.497 386.135 320.323 383.295 317.924 380.017C313.232 373.623 310.058 365.071 312.943 357.501C313.241 356.796 313.496 356.074 313.707 355.338C313.818 354.936 313.881 354.522 313.893 354.105C313.949 351.006 310.969 348.544 310.268 345.498C309.052 340.211 310.371 331.856 313.898 328.736C315.296 327.512 316.871 327.288 318.637 327.274C319.475 327.274 319.755 327.484 320.184 327.41C320.448 327.351 320.699 327.24 320.92 327.083C321.554 326.69 322.117 325.682 322.416 324.813C324.056 325.854 325.244 327.732 325.575 330.59C325.934 333.696 325.929 336.974 324.862 340.08C323.795 343.186 321.535 346.114 318.595 347.268L318.082 347.45C318.241 347.735 318.432 348.002 318.651 348.244C320.263 350.019 322.844 350.43 325.221 350.738C325.506 350.8 325.803 350.789 326.083 350.705C326.297 350.598 326.475 350.43 326.596 350.223C326.717 350.016 326.775 349.778 326.763 349.538C326.731 349.058 326.629 348.586 326.46 348.137C325.062 343.321 327.527 337.82 327.937 332.963C328.347 328.105 327.359 322.842 323.478 319.545Z" fill="#2F4B6C"/>
<path d="M645.117 432.049L672.502 421.957L666.854 470.038L670.125 511.52L670.214 511.796L670.148 511.805L670.158 511.894L664.753 512.412V512.403L664.552 512.426L652.493 475.47L646.105 436.103L645.117 432.049Z" fill="#3B455A"/>
<path d="M665.037 514.299L670.638 514.159L672.068 518.894L671.924 518.936L671.961 518.941L662.702 524.443L658.294 524.933L657.735 519.889L658.928 519.016L665.037 514.299Z" fill="#212940"/>
<path d="M626.465 432.876L634.684 515.2L640.103 515.448L645.55 470.995L654.986 426.725L626.465 432.876Z" fill="#3B455A"/>
<path d="M634.698 517.11L627.518 521.192L628.189 524.588L641.017 522.649L640.262 517.755L634.698 517.11Z" fill="#212940"/>
<path d="M613.627 453.552C611.894 452.347 611.857 450.245 611.861 448.143C611.948 444.148 612.491 440.176 613.478 436.304C615.198 429.102 617.145 420.425 618.003 411.084C620.221 386.976 627.816 370.797 627.816 370.797L630.267 364.259C630.751 363.406 631.258 362.564 631.786 361.732C634.847 356.917 640.173 348.735 645.849 347.394L646.207 347.315C652.181 345.998 659.841 346.61 665.242 349.524C666.249 350.108 667.2 350.784 668.084 351.542C670.722 353.676 672.879 354.834 674.016 358.08C675.004 360.906 675.237 363.988 675.782 366.916C676.886 372.862 677.548 378.882 678.433 384.865C680.092 396.073 681.499 407.343 683.275 418.547C684.206 424.31 685.106 430.088 685.534 435.916C685.917 441.054 690.553 446.294 693.158 450.913C694.09 452.519 681.043 456.681 679.878 456.952C674.477 458.213 668.732 457.886 663.164 457.918C650.959 457.974 638.766 457.598 626.586 456.788C622.537 456.517 617.551 455.742 613.963 453.724C613.847 453.674 613.735 453.616 613.627 453.552Z" fill="#4D698A"/>
<path d="M652.908 346.684C652.908 346.684 659.781 344.816 660.731 360.369C661.682 375.921 663.262 415.245 665.475 426.034C667.688 436.822 671.015 457.974 671.015 457.974L649.968 458.722L625.915 456.816C625.915 456.816 634.144 441.591 635.411 430.807C636.678 420.023 634.479 379.433 639.842 364.189C645.206 348.945 646.352 346.955 652.908 346.684Z" fill="white"/>
<path d="M621.8 381.306L610.822 379.606V370.13L637.308 349.898L645.853 347.362L641.739 358.463L621.8 381.306Z" fill="#4D698A"/>
<path d="M643.323 334.368C642.279 337.498 643.789 340.837 645.108 343.686C646.277 346.217 646.687 347.889 643.71 348.566C642.037 348.949 639.05 349.664 637.592 348.379C636.478 347.403 637.126 344.396 637.648 343.2C638.058 342.289 639.153 341.827 639.544 340.902C639.683 340.511 639.746 340.098 639.731 339.683C639.753 337.994 639.522 336.311 639.046 334.691C638.647 333.616 638.359 332.503 638.184 331.37C638.039 329.712 639.209 327.783 639.819 326.265C640.961 323.435 644.945 319.638 648.267 321.861C648.985 322.431 649.527 323.191 649.833 324.056C650.08 324.542 650.229 325.072 650.271 325.616C650.271 327.788 648.314 328.157 646.948 329.189C645.254 330.516 643.991 332.319 643.323 334.368Z" fill="#2F4B6C"/>
<path d="M659.93 330.245C655.792 322.702 643.579 322.071 642.582 331.912C642.279 334.868 642.34 337.937 643.421 340.701C644.502 343.466 646.762 345.9 649.651 346.581H649.702L649.8 348.875C649.784 349.042 649.833 349.209 649.935 349.342C650.01 349.397 650.095 349.437 650.185 349.46C650.276 349.482 650.37 349.487 650.462 349.472L653.197 349.374C653.649 349.395 654.101 349.31 654.515 349.127C655.387 348.66 655.568 347.473 655.447 346.488C655.415 346.255 655.368 346.021 655.322 345.787C660.219 343.018 662.632 335.176 659.93 330.245Z" fill="#EAC5B0"/>
<path d="M653.593 314.874C656.799 315.967 658.854 319.218 661.98 320.516C663.774 321.263 665.899 321.357 667.362 322.636C670.647 325.499 668.005 331.51 670.703 334.943C671.262 335.653 672.022 336.195 672.567 336.904C673.783 338.436 673.941 340.529 674.049 342.481C674.082 342.934 674.066 343.39 674.002 343.84C673.583 348.351 667.045 348.043 664.45 347.777C661.603 347.459 662.553 345.872 662.553 345.872L662.656 345.745C662.782 344.825 662.673 343.888 662.338 343.022C662.003 342.155 661.453 341.389 660.741 340.795C660.209 340.36 659.576 340.015 659.203 339.44C658.36 338.151 659.166 336.437 659.04 334.901C658.565 328.685 648.188 330.011 645.257 325.616C641.669 320.189 647.535 312.791 653.593 314.874Z" fill="#2F4B6C"/>
<path d="M633.906 382.884L640.108 381.857L639.787 379.181L635.383 378.938L635.817 377.602L630.616 379.129L630.574 381.96L633.906 382.884Z" fill="#EAC5B0"/>
<path d="M617.052 372.824L617.02 373.366L632.201 378.022L631.837 383.627L610.822 378.228L617.052 372.824Z" fill="#4D698A"/>
<path opacity="0.5" d="M454.592 262.072C459.78 256.872 459.78 248.441 454.592 243.241C449.404 238.041 440.993 238.041 435.805 243.241C430.617 248.441 430.617 256.872 435.805 262.072C440.993 267.271 449.404 267.271 454.592 262.072Z" fill="#4D698A"/>
<path opacity="0.2" d="M573.434 284.643C578.485 284.643 582.58 280.539 582.58 275.475C582.58 270.412 578.485 266.307 573.434 266.307C568.382 266.307 564.287 270.412 564.287 275.475C564.287 280.539 568.382 284.643 573.434 284.643Z" fill="#4D698A"/>
<path d="M478.774 311.855C479.377 308.131 476.853 304.621 473.137 304.016C469.421 303.412 465.919 305.941 465.316 309.666C464.713 313.391 467.236 316.901 470.952 317.505C474.669 318.11 478.17 315.58 478.774 311.855Z" fill="#4D698A"/>
<g style="mix-blend-mode:multiply" opacity="0.2">
<g style="mix-blend-mode:multiply" opacity="0.2">
<path d="M454.008 361.686L485.143 356.254C485.143 356.254 455.187 368.439 455.345 369.331L454.008 361.686Z" fill="black"/>
</g>
</g>
<path d="M668.662 414.32L641.017 401.963L640.639 402.873L624.084 395.55C628.445 379.736 620.785 362.736 605.445 355.964C588.591 348.492 568.853 356.268 561.361 373.282C553.868 390.296 561.454 410.126 578.308 417.576C593.218 424.175 610.426 418.832 619.363 405.699L636.348 413.209L635.928 414.213L663.457 426.132C665.852 427.192 668.951 425.431 670.372 422.204L670.423 422.087C671.854 418.86 671.062 415.381 668.662 414.32Z" fill="#3B455A"/>
<path d="M617.806 399.028C624.625 384.562 618.54 367.335 604.214 360.55C589.888 353.766 572.746 359.993 565.927 374.459C559.107 388.926 565.193 406.153 579.519 412.937C593.845 419.722 610.986 413.494 617.806 399.028Z" fill="#B4C4D7"/>
<path d="M636.199 413.793L641.035 402.117C641.116 401.925 641.122 401.709 641.054 401.512C640.985 401.316 640.845 401.151 640.662 401.052L640.541 400.987C640.437 400.931 640.322 400.898 640.204 400.889C640.086 400.881 639.967 400.898 639.856 400.938C639.745 400.979 639.644 401.042 639.559 401.125C639.474 401.207 639.407 401.306 639.362 401.416L634.633 413.13C634.591 413.232 634.569 413.343 634.569 413.454C634.57 413.566 634.593 413.676 634.636 413.778C634.679 413.881 634.743 413.974 634.822 414.052C634.901 414.129 634.996 414.191 635.099 414.232C635.303 414.317 635.532 414.318 635.738 414.236C635.943 414.154 636.109 413.995 636.199 413.793Z" fill="#F7F7F7"/>
<path d="M619.662 382.884C620.617 389.743 619.078 396.716 615.325 402.531C611.572 408.345 605.857 412.611 599.224 414.549C592.6 416.479 585.499 415.912 579.263 412.954C573.027 409.997 568.086 404.855 565.372 398.497C563.311 393.702 562.593 388.434 563.296 383.26C563.998 378.086 566.094 373.202 569.359 369.133C572.624 365.064 576.933 361.964 581.824 360.166C586.716 358.368 592.003 357.941 597.118 358.93C602.892 360.079 608.165 363.004 612.203 367.297C616.241 371.591 618.844 377.039 619.648 382.884C619.686 383.076 619.797 383.246 619.958 383.359C620.118 383.472 620.315 383.518 620.508 383.49C620.702 383.461 620.877 383.359 620.998 383.204C621.119 383.05 621.176 382.855 621.157 382.66C620.179 375.804 616.89 369.489 611.838 364.763C606.848 360.153 600.437 357.388 593.666 356.926C586.751 356.452 579.884 358.379 574.221 362.384C568.558 366.389 564.445 372.227 562.573 378.916C560.701 385.604 561.185 392.735 563.944 399.108C566.703 405.48 571.568 410.706 577.72 413.905C583.905 417.094 591.007 418.016 597.799 416.511C605.223 414.846 611.75 410.441 616.083 404.173C620.415 397.904 622.235 390.231 621.181 382.679C621.041 381.661 619.526 381.903 619.662 382.884Z" fill="#F7F7F7"/>
<path d="M666.118 420.102V420.032V420.102ZM635.062 400.632H634.992H635.066H635.062Z" fill="#2E4661"/>
<path d="M652.13 410.706L645.671 412.929L644.604 410.206L648.691 407.703L647.587 406.647L653.346 405.419L654.837 408.099L652.13 410.706Z" fill="#EAC5B0"/>
<path d="M665.959 362.227L673.135 388.008L651.981 404.443L656.412 411.448L687.659 392.169L678.401 359.897L668.084 351.569L665.959 362.227Z" fill="#4D698A"/>
</g>
<defs>
<clipPath id="clip0">
<rect width="413" height="310" fill="white" transform="translate(283 221)"/>
</clipPath>
</defs>
</svg>
