<svg width="14" height="14" viewBox="0 0 14 14" fill="none" xmlns="http://www.w3.org/2000/svg">
<path fill-rule="evenodd" clip-rule="evenodd" d="M7 5.42163L9.625 3.14832L7 0.875L7 2.27332C4.10051 2.27332 1.75 4.62382 1.75 7.52332C1.75 10.4228 4.10051 12.7733 7 12.7733C9.89949 12.7733 12.25 10.4228 12.25 7.52332C12.25 7.22519 12.2252 6.93287 12.1774 6.64832H10.3897C10.4617 6.92798 10.5 7.22118 10.5 7.52332C10.5 9.45631 8.933 11.0233 7 11.0233C5.067 11.0233 3.5 9.45631 3.5 7.52332C3.5 5.59032 5.067 4.02332 7 4.02332L7 5.42163Z" fill="#3B444F"/>
</svg>
